<svg id="svg" xmlns="http://www.w3.org/2000/svg" xmlns:xlink="http://www.w3.org/1999/xlink" width="400" height="400" viewBox="0, 0, 400,400"><g id="svgg"><path id="path0" d="M240.278 133.055 C 240.125 133.208,240.000 134.013,240.000 134.844 C 240.000 136.335,239.978 136.356,238.300 136.477 C 236.608 136.599,236.599 136.608,236.477 138.300 C 236.359 139.934,236.302 140.000,235.026 140.000 C 233.092 140.000,232.890 140.516,232.826 145.600 L 232.768 150.200 234.750 152.192 C 235.841 153.288,236.962 154.878,237.241 155.724 C 238.021 158.089,241.821 161.812,243.800 162.151 C 251.590 163.486,253.118 163.963,252.550 164.881 C 252.442 165.056,252.543 165.200,252.776 165.200 C 253.009 165.200,253.200 165.650,253.200 166.200 C 253.200 166.750,253.368 167.200,253.573 167.200 C 254.137 167.200,254.465 165.798,254.173 164.634 C 253.979 163.863,254.067 163.600,254.519 163.600 C 255.711 163.600,261.489 158.853,261.724 157.682 C 262.093 155.835,263.459 154.475,265.312 154.108 L 267.000 153.774 267.075 147.288 C 267.158 140.040,267.143 140.000,264.423 140.000 C 263.795 140.000,263.622 139.674,263.523 138.300 C 263.404 136.650,263.356 136.596,261.900 136.476 C 260.599 136.368,260.400 136.219,260.400 135.350 C 260.400 132.824,260.531 132.857,250.079 132.815 C 244.842 132.794,240.432 132.902,240.278 133.055 M186.400 147.284 C 186.400 147.484,186.239 147.548,186.042 147.426 C 185.602 147.154,184.965 148.424,184.850 149.800 C 184.811 150.274,184.187 150.400,181.880 150.400 C 178.217 150.400,178.000 150.616,178.000 154.272 C 178.000 157.045,177.952 157.197,177.000 157.436 C 176.450 157.574,176.000 157.858,176.000 158.067 C 176.000 158.276,175.835 158.345,175.632 158.220 C 174.823 157.720,174.329 160.657,174.966 162.181 C 175.299 162.978,175.398 163.522,175.186 163.391 C 174.438 162.929,174.812 163.953,175.836 165.169 C 176.405 165.846,177.125 166.400,177.436 166.400 C 177.746 166.400,178.000 166.757,178.000 167.192 C 178.000 167.693,178.331 168.052,178.900 168.167 C 179.395 168.268,180.251 168.444,180.803 168.558 C 182.749 168.962,184.400 170.753,184.400 172.458 L 184.400 174.000 188.613 174.000 C 192.671 174.000,195.600 173.369,195.600 172.494 C 195.600 172.052,198.205 170.800,199.125 170.800 C 201.339 170.800,202.021 169.043,200.975 166.038 C 200.070 163.440,200.049 159.710,200.930 157.937 C 201.959 155.864,201.707 153.839,200.400 153.672 C 199.197 153.517,198.400 152.581,198.400 151.324 C 198.400 150.496,198.214 150.400,196.600 150.400 C 195.600 150.400,194.800 150.212,194.800 149.976 C 194.800 149.743,194.622 149.663,194.405 149.797 C 194.178 149.937,194.111 149.777,194.247 149.421 C 194.378 149.079,194.286 148.800,194.043 148.800 C 193.799 148.800,193.645 148.575,193.700 148.300 C 193.755 148.025,193.575 147.845,193.300 147.900 C 193.025 147.955,192.800 147.801,192.800 147.557 C 192.800 147.314,192.521 147.222,192.179 147.353 C 191.838 147.484,191.662 147.423,191.789 147.218 C 191.924 146.999,190.857 146.860,189.210 146.882 C 187.664 146.903,186.400 147.084,186.400 147.284 M310.122 164.399 C 309.546 164.634,309.152 165.247,308.978 166.179 C 308.734 167.476,308.592 167.600,307.352 167.600 C 306.179 167.600,306.045 167.696,306.376 168.300 C 307.618 170.569,307.626 174.105,306.395 176.471 C 304.054 180.970,304.843 185.806,308.049 186.601 C 309.726 187.017,311.139 193.101,309.857 194.383 C 309.146 195.094,318.867 194.926,320.254 194.202 C 321.686 193.456,323.496 193.455,324.800 194.200 C 325.968 194.868,332.371 195.035,332.450 194.400 C 332.478 194.180,332.545 193.820,332.600 193.600 C 332.655 193.380,332.723 192.750,332.750 192.200 C 332.790 191.391,333.010 191.198,333.900 191.187 C 335.986 191.163,336.282 190.565,336.370 186.200 C 336.427 183.384,336.620 182.020,337.025 181.572 C 337.768 180.751,337.767 178.047,337.023 177.225 C 336.622 176.782,336.426 175.489,336.381 172.993 C 336.307 168.808,335.817 167.711,333.939 167.526 C 332.914 167.425,332.648 167.209,332.593 166.434 C 332.434 164.203,331.684 164.050,320.886 164.045 C 315.449 164.042,310.605 164.201,310.122 164.399 M329.200 217.618 C 329.200 220.009,325.737 221.368,323.455 219.873 C 321.836 218.812,320.229 219.508,320.075 221.337 C 319.970 222.587,319.686 222.987,318.275 223.874 C 317.354 224.453,316.356 225.271,316.058 225.691 C 315.659 226.254,315.135 226.421,314.058 226.328 L 312.600 226.203 312.600 231.401 L 312.600 236.600 314.243 236.720 C 315.680 236.825,316.192 237.164,318.329 239.420 C 319.963 241.145,321.079 242.000,321.697 242.000 C 323.116 242.000,324.280 243.036,324.565 244.552 C 324.895 246.313,325.304 246.442,330.318 246.369 C 334.698 246.305,336.401 245.621,335.838 244.154 C 335.600 243.535,335.932 243.335,337.693 243.039 C 339.471 242.740,339.600 242.492,339.600 239.366 L 339.600 236.380 340.845 236.131 C 342.598 235.780,343.351 233.890,342.945 230.857 C 342.779 229.616,342.679 228.465,342.722 228.300 C 342.820 227.924,341.305 226.383,340.900 226.447 C 339.881 226.608,339.678 226.188,339.533 223.608 C 339.371 220.743,338.549 219.358,337.279 219.807 C 336.993 219.908,336.863 219.822,336.991 219.615 C 337.124 219.400,336.149 219.188,334.712 219.119 C 333.004 219.038,332.231 218.844,332.295 218.514 C 332.425 217.855,330.655 216.133,329.848 216.133 C 329.367 216.133,329.200 216.516,329.200 217.618 M219.861 233.405 C 219.489 233.677,219.200 234.438,219.200 235.144 C 219.200 236.266,219.075 236.400,218.029 236.400 C 216.548 236.400,215.600 237.332,215.600 238.789 C 215.600 239.688,215.352 240.008,214.398 240.341 C 212.130 241.132,211.915 243.132,214.062 243.467 C 215.733 243.727,215.549 243.466,216.084 246.344 C 216.428 248.192,216.425 249.417,216.070 251.342 C 214.625 259.185,215.981 260.400,226.181 260.400 C 233.361 260.400,232.868 260.581,233.963 257.550 C 234.203 256.884,235.006 256.178,236.153 255.623 C 237.985 254.736,238.138 254.509,238.595 252.000 C 239.071 249.386,239.587 248.586,241.314 247.783 L 243.000 247.000 243.026 244.600 L 243.053 242.200 241.326 242.340 C 239.960 242.451,239.600 242.349,239.600 241.848 C 239.600 241.501,238.924 240.872,238.099 240.450 C 236.539 239.655,234.400 236.857,234.400 235.613 C 234.400 234.223,233.473 233.965,231.673 234.856 C 229.638 235.863,228.373 235.635,226.698 233.960 C 225.388 232.650,221.342 232.322,219.861 233.405 M185.846 238.217 C 184.036 240.028,184.017 240.035,181.018 240.117 L 178.008 240.200 178.004 242.100 C 178.001 243.423,177.837 244.000,177.462 244.000 C 176.701 244.000,175.468 245.463,175.791 245.985 C 175.938 246.224,175.845 246.370,175.583 246.310 C 175.028 246.182,174.773 247.025,174.526 249.800 C 174.322 252.095,174.933 253.249,176.432 253.400 C 176.964 253.454,177.535 253.521,177.700 253.549 C 177.865 253.577,178.000 255.021,178.000 256.757 C 178.000 260.131,178.165 260.400,180.233 260.400 C 180.765 260.400,181.221 260.625,181.246 260.900 C 181.503 263.686,181.312 263.630,190.221 263.509 L 198.200 263.400 198.324 261.900 C 198.445 260.442,198.492 260.400,200.024 260.400 L 201.600 260.400 201.600 258.600 L 201.600 256.800 203.200 256.800 C 204.080 256.800,204.821 256.665,204.846 256.500 C 205.165 254.398,205.058 253.749,204.180 252.456 C 203.641 251.663,203.200 250.790,203.200 250.517 C 203.200 250.243,202.841 249.430,202.401 248.710 C 201.016 246.438,201.489 243.915,203.389 243.438 C 205.715 242.855,204.114 240.757,201.167 240.526 C 197.998 240.277,197.524 240.129,196.200 238.972 C 192.471 235.713,188.630 235.433,185.846 238.217 M304.600 260.778 C 304.160 260.955,303.657 261.017,303.482 260.916 C 302.996 260.633,301.974 261.635,302.266 262.107 C 302.415 262.348,302.330 262.404,302.064 262.239 C 301.807 262.081,301.195 262.396,300.678 262.954 C 299.950 263.739,299.287 263.979,297.576 264.076 C 295.022 264.221,294.773 264.754,295.618 268.274 C 296.294 271.094,295.671 272.624,293.430 273.642 C 292.534 274.049,292.011 274.386,292.269 274.391 C 294.316 274.430,295.961 278.710,294.660 280.611 C 293.219 282.714,293.615 284.947,295.274 284.077 C 297.672 282.820,299.845 283.595,301.022 286.126 L 301.800 287.800 306.800 287.773 C 313.313 287.738,315.463 287.203,315.134 285.700 C 314.829 284.306,316.519 281.695,318.121 281.084 C 319.206 280.670,318.860 268.240,317.762 268.180 C 316.666 268.121,315.600 267.456,315.600 266.832 C 315.600 266.223,315.109 266.084,312.241 265.882 C 306.881 265.503,305.625 264.755,305.475 261.848 C 305.434 261.053,305.400 260.415,305.400 260.430 C 305.400 260.444,305.040 260.601,304.600 260.778 M256.800 272.517 C 256.800 274.895,254.175 277.600,251.867 277.600 L 250.364 277.600 250.482 284.500 C 250.608 291.846,250.667 292.302,251.600 293.128 C 251.930 293.420,251.975 293.545,251.700 293.406 C 251.425 293.267,251.200 293.251,251.200 293.371 C 251.200 293.838,254.175 294.800,255.618 294.800 C 256.993 294.800,257.181 294.930,257.588 296.165 C 258.125 297.790,258.267 297.855,261.577 297.963 C 262.994 298.009,264.257 298.112,264.384 298.190 C 264.511 298.269,264.546 297.617,264.463 296.743 C 264.292 294.944,264.658 294.521,267.600 293.123 C 268.590 292.653,269.670 292.048,270.000 291.780 C 270.790 291.137,273.539 290.846,273.762 291.381 C 273.858 291.611,273.951 290.451,273.968 288.801 C 274.003 285.565,272.539 280.148,271.213 278.600 C 270.344 277.585,269.500 273.705,269.790 272.057 L 270.011 270.800 263.406 270.800 L 256.800 270.800 256.800 272.517 M279.758 306.226 C 278.379 307.322,274.766 308.400,272.469 308.400 C 271.459 308.400,270.799 308.647,270.426 309.164 C 270.124 309.584,269.652 309.841,269.378 309.736 C 269.105 309.631,268.745 309.766,268.579 310.035 C 268.373 310.367,268.456 310.430,268.838 310.232 C 269.147 310.072,269.067 310.212,268.660 310.544 C 268.253 310.875,268.031 311.326,268.166 311.546 C 268.302 311.765,268.230 312.058,268.007 312.196 C 267.758 312.350,267.600 314.998,267.600 319.016 L 267.600 325.585 268.700 325.848 C 270.276 326.224,270.800 326.751,270.800 327.960 C 270.800 328.544,271.112 329.467,271.493 330.011 C 271.874 330.555,272.119 331.090,272.037 331.200 C 271.956 331.310,272.499 331.706,273.245 332.081 C 274.576 332.749,274.480 332.762,267.923 332.781 C 260.516 332.802,259.031 333.219,257.785 335.628 C 256.939 337.265,256.924 352.719,257.769 353.043 C 258.403 353.287,259.539 353.523,260.300 353.569 C 260.580 353.587,260.800 354.118,260.800 354.776 C 260.800 355.423,261.008 356.081,261.262 356.238 C 261.565 356.426,261.624 356.331,261.432 355.962 C 261.272 355.653,261.385 355.696,261.683 356.057 C 263.231 357.932,275.582 356.810,276.494 354.712 C 276.818 353.967,277.386 353.469,278.072 353.329 C 280.645 352.806,280.986 351.818,281.139 344.436 C 281.293 337.002,281.116 336.400,278.771 336.400 C 277.703 336.400,277.600 336.279,277.600 335.020 C 277.600 334.127,277.353 333.496,276.900 333.232 C 276.349 332.911,288.195 332.558,290.255 332.834 C 290.743 332.899,291.188 331.793,291.194 330.500 C 291.200 329.227,291.237 329.200,293.000 329.200 L 294.800 329.200 294.800 327.443 C 294.800 325.906,294.924 325.656,295.795 325.437 C 297.928 324.902,298.637 321.460,298.003 314.707 C 297.914 313.765,296.800 312.183,296.800 313.000 C 296.800 313.164,296.538 313.080,296.218 312.815 C 295.897 312.549,295.447 312.447,295.218 312.589 C 294.949 312.755,294.800 312.127,294.800 310.824 L 294.800 308.800 291.500 308.797 L 288.200 308.793 286.400 307.015 C 284.177 304.818,281.872 304.544,279.758 306.226 " stroke="none" fill="#8ec540" fill-rule="evenodd"></path><path id="path1" d="M151.200 33.332 C 151.200 33.514,150.705 33.555,150.100 33.423 C 148.916 33.164,147.697 34.386,148.248 35.278 C 148.415 35.548,148.342 35.611,148.062 35.438 C 147.808 35.281,147.600 35.373,147.600 35.643 C 147.600 35.913,147.486 36.019,147.346 35.879 C 147.206 35.739,147.397 35.124,147.770 34.512 L 148.447 33.400 147.624 34.344 C 147.171 34.864,146.800 35.539,146.800 35.844 C 146.800 36.184,146.333 36.419,145.600 36.450 C 144.940 36.477,144.175 36.523,143.900 36.550 C 143.518 36.588,143.400 38.569,143.400 44.980 L 143.400 53.361 145.000 53.516 C 146.942 53.704,146.910 53.675,146.960 55.293 L 147.000 56.600 227.771 56.705 C 272.195 56.762,308.613 56.880,308.700 56.966 C 308.786 57.053,308.899 57.675,308.950 58.350 C 309.084 60.105,309.278 60.253,311.587 60.350 C 312.485 60.388,312.717 60.551,312.537 61.019 C 312.402 61.373,312.621 61.900,313.050 62.249 C 313.462 62.585,313.547 62.728,313.238 62.568 C 312.889 62.387,312.776 62.437,312.939 62.701 C 313.083 62.934,313.589 63.023,314.063 62.899 C 314.710 62.730,314.843 62.807,314.597 63.205 C 314.362 63.586,314.448 63.667,314.904 63.492 C 315.573 63.235,316.598 65.268,316.067 65.799 C 315.920 65.946,316.062 66.007,316.382 65.933 C 316.702 65.860,316.972 66.055,316.982 66.367 C 316.992 66.678,317.270 67.007,317.600 67.097 C 318.133 67.243,318.133 67.214,317.600 66.837 C 317.070 66.462,317.073 66.412,317.620 66.406 C 318.677 66.396,319.200 67.288,319.200 69.104 C 319.200 70.063,319.364 70.746,319.564 70.623 C 319.763 70.499,320.360 70.912,320.889 71.541 C 321.418 72.169,322.109 72.785,322.425 72.910 C 322.873 73.087,322.851 73.144,322.329 73.168 C 321.960 73.186,321.285 72.726,320.829 72.146 C 320.373 71.566,320.000 71.296,320.000 71.546 C 320.000 72.203,321.496 73.600,322.200 73.600 C 322.706 73.600,322.800 74.514,322.800 79.427 C 322.800 85.186,322.790 85.251,321.950 84.984 C 321.340 84.790,321.184 84.851,321.400 85.200 C 321.614 85.546,321.465 85.611,320.883 85.426 C 320.219 85.216,320.104 85.311,320.268 85.938 C 320.379 86.363,320.276 86.829,320.039 86.976 C 319.768 87.143,319.693 86.975,319.835 86.521 C 320.040 85.865,320.017 85.868,319.584 86.548 C 319.213 87.129,319.216 87.362,319.596 87.598 C 319.945 87.813,319.958 87.978,319.643 88.174 C 319.399 88.324,319.200 89.241,319.200 90.211 C 319.200 91.621,319.079 91.928,318.595 91.743 C 318.262 91.615,317.751 91.709,317.458 91.952 C 317.166 92.194,316.813 92.280,316.674 92.141 C 316.332 91.799,315.519 94.012,315.758 94.636 C 315.996 95.254,315.027 95.662,314.134 95.319 C 313.648 95.133,313.558 95.208,313.800 95.600 C 314.040 95.988,313.953 96.068,313.486 95.888 C 313.011 95.706,312.906 95.811,313.088 96.286 C 313.263 96.741,313.185 96.838,312.825 96.616 C 312.446 96.381,312.384 96.520,312.585 97.152 C 312.901 98.147,312.256 98.444,309.076 98.767 C 308.898 98.785,308.857 98.968,308.983 99.173 C 309.110 99.378,308.626 100.098,307.907 100.771 L 306.600 101.996 215.474 101.998 C 118.643 102.000,122.800 101.910,122.800 104.014 C 122.800 105.103,122.685 105.200,121.400 105.200 C 120.630 105.200,119.910 105.200,119.800 105.200 C 119.616 105.200,118.975 105.744,117.100 107.489 C 116.715 107.847,116.400 108.378,116.400 108.670 C 116.400 108.961,116.220 109.200,116.000 109.200 C 115.780 109.200,115.600 110.013,115.600 111.008 C 115.600 112.736,115.556 112.804,114.600 112.564 C 113.844 112.374,113.600 112.470,113.600 112.957 C 113.600 113.310,113.323 113.600,112.985 113.600 C 112.591 113.600,112.398 113.923,112.447 114.500 C 112.490 114.995,112.496 117.065,112.462 119.100 L 112.400 122.800 111.043 122.800 C 109.206 122.800,108.974 123.315,108.859 127.632 C 108.807 129.595,108.675 129.932,107.764 130.419 C 107.194 130.724,106.371 131.674,105.934 132.529 C 105.433 133.512,105.336 133.966,105.671 133.765 C 106.093 133.511,106.103 133.567,105.720 134.040 C 105.456 134.366,105.186 135.886,105.120 137.417 C 105.017 139.809,104.902 140.184,104.300 140.082 C 103.915 140.018,103.600 140.147,103.600 140.370 C 103.600 140.593,103.300 140.660,102.934 140.519 C 102.487 140.348,102.364 140.417,102.558 140.732 C 102.717 140.989,102.661 141.200,102.433 141.200 C 102.205 141.200,102.037 141.785,102.060 142.500 C 102.083 143.215,102.079 145.285,102.051 147.100 L 102.000 150.400 100.849 150.400 C 100.216 150.400,99.457 150.690,99.163 151.045 C 98.676 151.632,98.568 152.412,98.442 156.273 C 98.412 157.187,98.167 157.620,97.572 157.809 C 95.951 158.323,95.203 160.295,95.201 164.057 C 95.200 167.609,94.868 168.308,93.440 167.760 C 92.306 167.325,91.957 168.567,91.714 173.900 L 91.527 178.000 89.964 178.000 C 89.012 178.000,88.376 178.196,88.339 178.500 C 88.306 178.775,88.236 179.180,88.185 179.400 C 88.134 179.620,88.072 181.015,88.046 182.500 C 88.013 184.452,87.853 185.200,87.470 185.200 C 85.857 185.200,85.005 187.155,84.800 191.332 L 84.600 195.400 83.487 195.317 C 82.749 195.263,82.468 195.387,82.653 195.685 C 82.831 195.974,82.707 196.050,82.307 195.896 C 81.549 195.606,81.340 196.713,81.231 201.589 C 81.189 203.453,81.120 205.011,81.077 205.050 C 81.035 205.090,80.550 205.184,80.000 205.261 C 78.327 205.494,78.000 206.138,78.000 209.198 C 78.000 212.113,77.394 214.161,76.811 213.217 C 76.276 212.351,74.724 213.617,74.992 214.700 C 75.115 215.195,75.056 215.600,74.862 215.600 C 74.668 215.600,74.474 217.162,74.432 219.072 C 74.352 222.720,73.691 224.105,72.501 223.118 C 72.148 222.825,72.000 222.841,72.000 223.175 C 72.000 223.446,71.787 223.519,71.500 223.347 C 71.113 223.115,71.116 223.189,71.510 223.677 C 71.927 224.191,71.919 224.345,71.469 224.518 C 71.048 224.680,70.899 225.886,70.840 229.615 C 70.772 233.969,70.677 234.572,69.962 235.150 C 68.143 236.625,68.071 242.434,69.850 244.214 C 70.643 245.006,70.800 245.568,70.800 247.608 C 70.800 248.953,70.998 250.422,71.240 250.875 C 71.560 251.472,71.560 251.622,71.240 251.425 C 70.998 251.275,70.800 251.343,70.800 251.576 C 70.800 251.809,71.092 252.000,71.449 252.000 C 72.008 252.000,72.022 252.094,71.549 252.677 C 71.236 253.062,71.203 253.232,71.472 253.070 C 71.732 252.914,72.058 252.970,72.196 253.193 C 72.334 253.417,72.627 253.600,72.847 253.600 C 73.067 253.600,73.135 253.419,72.998 253.197 C 72.856 252.967,73.197 252.998,73.790 253.268 C 74.383 253.538,74.744 253.969,74.630 254.267 C 74.365 254.957,76.103 256.675,77.055 256.665 C 95.991 256.464,109.999 256.855,109.614 257.574 C 109.024 258.677,109.097 258.920,109.949 258.697 C 110.528 258.546,110.653 258.674,110.500 259.259 C 110.325 259.929,110.425 259.971,111.351 259.619 C 112.069 259.346,112.400 259.352,112.400 259.638 C 112.400 259.869,112.670 260.327,113.000 260.657 C 113.330 260.987,113.597 261.559,113.594 261.929 C 113.589 262.508,113.535 262.518,113.200 262.000 C 112.987 261.670,112.809 261.603,112.806 261.851 C 112.796 262.597,113.911 263.282,114.718 263.026 C 115.715 262.709,115.951 272.840,115.732 306.643 C 115.574 331.052,115.677 333.163,117.006 332.653 C 117.333 332.528,117.600 332.633,117.600 332.887 C 117.600 333.141,117.948 333.720,118.374 334.174 C 119.014 334.856,119.163 335.663,119.228 338.800 C 119.313 342.906,119.456 343.184,121.500 343.194 L 122.800 343.200 122.863 345.900 C 122.898 347.385,122.918 348.825,122.907 349.100 C 122.897 349.375,123.094 349.627,123.344 349.661 C 123.595 349.694,123.980 349.764,124.200 349.815 C 124.420 349.866,124.905 349.928,125.277 349.954 C 125.778 349.988,125.986 350.441,126.077 351.700 C 126.161 352.867,126.388 353.412,126.800 353.439 C 127.130 353.461,127.895 353.506,128.500 353.539 C 129.507 353.595,129.600 353.736,129.600 355.200 L 129.600 356.800 131.200 356.800 C 132.819 356.800,133.076 357.158,132.835 359.079 C 132.752 359.741,133.900 360.236,135.800 360.357 C 136.749 360.417,137.644 360.751,138.000 361.177 C 138.330 361.572,138.960 362.094,139.400 362.336 C 139.840 362.578,139.967 362.781,139.682 362.788 C 139.397 362.795,138.722 362.358,138.182 361.818 C 137.163 360.799,136.824 360.977,137.700 362.072 C 138.528 363.107,140.721 363.600,144.502 363.600 C 147.663 363.600,148.056 363.678,147.833 364.258 C 147.440 365.283,148.719 366.436,149.916 366.135 C 150.564 365.973,150.828 366.031,150.662 366.300 C 150.520 366.529,150.669 366.818,150.992 366.942 C 152.095 367.365,249.837 367.215,251.060 366.789 C 252.572 366.262,253.426 364.955,252.774 364.169 C 252.376 363.689,252.652 363.600,254.551 363.600 L 256.800 363.600 256.800 355.443 C 256.800 346.613,256.848 346.800,254.581 346.800 C 254.019 346.800,253.442 346.452,253.174 345.952 C 252.855 345.356,252.851 345.184,253.160 345.375 C 253.402 345.525,253.600 345.457,253.600 345.224 C 253.600 344.991,253.401 344.800,253.157 344.800 C 252.911 344.800,252.826 344.509,252.966 344.143 C 253.177 343.594,253.118 343.570,252.609 343.992 C 252.106 344.410,252.000 344.385,252.000 343.849 C 252.000 343.492,251.809 343.200,251.576 343.200 C 251.343 343.200,251.275 343.398,251.425 343.640 C 251.622 343.959,251.473 343.960,250.886 343.646 C 250.317 343.342,235.749 343.210,201.968 343.203 C 175.509 343.198,153.816 343.149,153.761 343.094 C 153.706 343.039,153.602 342.455,153.530 341.797 C 153.372 340.340,152.974 340.014,151.343 340.006 C 150.134 340.000,149.583 339.250,149.433 337.400 C 149.415 337.180,149.220 336.985,149.000 336.967 C 146.932 336.799,146.341 336.257,146.408 334.592 C 146.425 334.178,145.392 333.289,145.100 333.466 C 144.935 333.565,144.800 333.436,144.800 333.177 C 144.800 332.904,144.465 332.794,144.000 332.916 C 143.546 333.035,143.189 332.925,143.175 332.663 C 142.931 328.211,142.446 326.961,140.824 326.605 L 139.600 326.336 139.553 285.268 C 139.527 262.681,139.527 244.065,139.553 243.900 C 139.579 243.735,139.285 243.579,138.900 243.554 C 138.515 243.528,138.020 243.466,137.800 243.415 C 137.580 243.364,137.175 243.294,136.900 243.261 C 136.625 243.227,136.400 242.696,136.400 242.080 C 136.400 240.607,135.734 240.000,134.120 240.000 C 132.878 240.000,132.800 239.917,132.800 238.600 C 132.800 237.599,132.622 237.200,132.176 237.200 C 131.833 237.200,131.659 237.027,131.790 236.817 C 131.939 236.574,125.800 236.424,115.132 236.409 C 97.508 236.383,97.358 236.368,97.757 234.700 C 97.849 234.316,97.734 233.883,97.501 233.739 C 97.251 233.584,97.194 233.667,97.362 233.938 C 97.519 234.192,97.457 234.400,97.224 234.400 C 96.991 234.400,96.800 234.111,96.800 233.757 C 96.800 233.321,96.585 233.197,96.132 233.371 C 95.230 233.717,94.813 232.940,94.806 230.900 C 94.800 229.226,94.821 229.200,96.186 229.200 C 97.646 229.200,98.460 228.340,98.337 226.926 C 98.055 223.702,98.425 221.722,99.406 221.197 C 100.900 220.397,101.463 218.888,101.564 215.409 C 101.658 212.219,102.247 210.807,103.120 211.680 C 104.371 212.931,105.050 210.592,105.148 204.700 L 105.200 201.600 106.413 201.600 C 107.119 201.600,107.721 201.351,107.854 201.002 C 107.981 200.674,108.225 200.492,108.397 200.598 C 108.569 200.704,108.702 200.568,108.692 200.296 C 108.556 196.535,108.839 194.883,109.653 194.670 C 110.267 194.510,110.448 194.225,110.298 193.654 C 110.151 193.092,110.252 192.922,110.643 193.072 C 110.947 193.188,111.079 193.473,110.936 193.704 C 110.783 193.951,110.869 194.005,111.145 193.834 C 111.402 193.675,111.509 193.377,111.383 193.172 C 111.256 192.968,111.324 192.800,111.533 192.800 C 111.744 192.800,111.938 190.988,111.970 188.720 C 112.035 184.071,111.932 184.360,113.539 184.314 C 115.222 184.266,115.374 183.870,115.611 178.935 C 115.713 176.798,115.853 176.413,116.664 176.043 C 117.179 175.809,117.600 175.365,117.600 175.058 C 117.600 174.750,117.870 174.274,118.200 174.000 C 118.640 173.634,118.800 172.664,118.800 170.351 C 118.800 167.021,118.889 166.896,121.066 167.162 C 121.764 167.248,122.324 164.945,122.368 161.800 C 122.407 159.032,122.427 158.982,124.134 157.400 C 125.848 155.811,125.861 155.779,125.947 152.816 C 126.046 149.397,125.959 149.595,127.456 149.426 C 128.285 149.332,128.565 149.108,128.473 148.608 C 128.404 148.230,128.509 148.020,128.707 148.143 C 128.911 148.269,129.107 146.507,129.157 144.093 C 129.261 139.144,129.070 139.639,130.927 139.505 C 131.736 139.447,132.420 139.220,132.446 139.000 C 132.520 138.375,132.732 135.108,132.771 134.000 C 132.808 132.954,134.530 131.786,135.318 132.273 C 135.549 132.416,135.601 132.325,135.438 132.062 C 135.281 131.808,135.354 131.600,135.600 131.600 C 135.846 131.600,135.936 131.420,135.800 131.200 C 135.664 130.980,135.764 130.800,136.023 130.800 C 136.296 130.800,136.406 130.465,136.284 130.000 C 136.167 129.554,136.280 129.174,136.537 129.141 C 136.792 129.108,137.270 129.045,137.600 129.000 C 137.930 128.955,138.419 128.892,138.687 128.859 C 138.971 128.825,139.068 128.522,138.919 128.134 C 138.738 127.661,138.812 127.560,139.175 127.784 C 139.550 128.016,139.617 127.884,139.427 127.284 C 139.010 125.970,136.260 126.011,227.315 125.995 C 299.743 125.982,314.757 125.888,314.927 125.447 C 315.039 125.154,315.653 124.809,316.290 124.682 C 317.010 124.538,317.626 124.062,317.916 123.425 C 318.292 122.599,318.675 122.394,319.891 122.370 C 322.040 122.328,323.074 122.091,324.313 121.358 C 325.309 120.769,325.335 120.769,324.624 121.358 C 324.196 121.711,324.039 122.000,324.275 122.000 C 324.829 122.000,325.663 120.996,325.360 120.693 C 324.552 119.885,325.737 118.800,327.427 118.800 L 329.200 118.800 329.200 117.223 C 329.200 115.654,329.208 115.645,330.900 115.523 C 332.588 115.401,332.601 115.388,332.722 113.722 C 332.842 112.064,332.864 112.042,334.498 111.922 C 336.062 111.807,336.160 111.724,336.309 110.403 C 336.481 108.882,336.992 108.345,337.929 108.705 C 338.336 108.861,338.432 108.776,338.225 108.441 C 338.018 108.105,338.157 107.987,338.660 108.073 C 339.316 108.186,339.423 107.836,339.600 105.000 L 339.800 101.800 341.308 101.675 C 342.138 101.607,342.712 101.382,342.585 101.175 C 342.457 100.969,342.508 100.800,342.698 100.800 C 343.043 100.800,343.091 100.123,343.162 94.300 C 343.192 91.871,343.326 91.200,343.782 91.200 C 345.982 91.200,346.342 89.768,346.383 80.840 C 346.409 75.248,346.279 72.373,345.992 72.195 C 345.694 72.011,345.721 71.731,346.081 71.288 C 346.511 70.757,346.507 70.703,346.057 70.973 C 345.629 71.231,345.570 71.049,345.775 70.114 C 346.085 68.701,345.261 67.800,344.019 68.194 C 343.243 68.440,343.199 68.291,343.172 65.327 C 343.105 58.048,342.942 57.412,341.111 57.272 C 339.521 57.151,339.679 57.464,339.561 54.199 C 339.452 51.207,339.143 50.608,337.655 50.507 C 336.469 50.427,336.527 50.505,336.257 48.600 C 336.132 47.720,336.023 46.955,336.015 46.900 C 336.007 46.845,335.280 46.800,334.400 46.800 C 332.760 46.800,332.721 46.746,332.808 44.592 C 332.831 44.033,331.769 43.391,330.693 43.312 C 329.218 43.204,329.300 43.291,329.110 41.624 C 328.941 40.146,328.993 40.168,325.046 39.897 C 323.956 39.822,323.313 39.523,322.897 38.895 C 322.137 37.751,322.526 37.740,323.584 38.875 C 324.257 39.597,324.400 39.635,324.400 39.089 C 324.400 38.726,323.999 38.213,323.508 37.951 C 323.018 37.688,322.364 37.221,322.055 36.912 C 321.746 36.603,321.023 36.381,320.447 36.418 C 316.730 36.656,314.851 36.391,314.599 35.596 C 314.288 34.618,312.288 33.515,311.425 33.846 C 311.081 33.978,310.800 33.878,310.800 33.625 C 310.800 33.315,310.342 33.250,309.400 33.426 C 308.630 33.571,308.000 33.534,308.000 33.345 C 308.000 33.153,273.183 33.000,229.600 33.000 C 186.480 33.000,151.200 33.149,151.200 33.332 M313.600 35.400 C 314.117 35.950,314.373 36.394,314.170 36.387 C 313.828 36.376,312.179 34.400,312.512 34.400 C 312.594 34.400,313.083 34.850,313.600 35.400 M97.394 159.120 C 96.737 159.737,96.124 160.186,96.032 160.119 C 95.762 159.923,97.697 158.000,98.164 158.000 C 98.397 158.000,98.051 158.504,97.394 159.120 M118.032 174.877 C 118.014 175.250,117.600 175.835,117.111 176.177 C 116.622 176.520,116.414 176.800,116.649 176.800 C 117.329 176.800,118.503 175.298,118.273 174.723 C 118.133 174.374,118.053 174.425,118.032 174.877 M164.800 179.730 C 164.800 181.759,165.665 182.765,168.315 183.817 C 169.834 184.421,170.085 184.708,170.515 186.329 C 171.231 189.031,173.624 191.219,175.781 191.143 L 177.400 191.086 175.823 190.843 C 174.375 190.620,174.178 190.434,173.423 188.573 C 172.346 185.920,169.983 183.200,167.882 182.197 C 166.340 181.461,166.190 181.253,166.077 179.697 C 165.903 177.297,164.800 177.326,164.800 179.730 M86.801 186.598 C 86.286 187.148,85.789 187.523,85.698 187.432 C 85.477 187.210,86.903 185.675,87.370 185.633 C 87.573 185.615,87.317 186.049,86.801 186.598 M166.513 210.515 C 165.614 210.916,164.705 212.526,164.225 214.570 C 163.852 216.156,164.966 215.281,165.939 213.224 L 166.613 211.800 169.907 211.800 C 171.718 211.800,173.200 211.665,173.200 211.500 C 173.200 211.335,172.919 211.200,172.576 211.200 C 172.184 211.200,172.064 211.015,172.253 210.700 C 172.492 210.303,172.428 210.301,171.947 210.690 C 171.596 210.975,171.185 211.033,170.970 210.830 C 170.398 210.287,167.486 210.081,166.513 210.515 M76.230 213.878 C 76.175 214.251,75.903 214.632,75.626 214.725 C 75.234 214.855,75.223 214.705,75.575 214.046 C 76.122 213.025,76.364 212.962,76.230 213.878 M100.387 219.500 C 100.381 219.665,99.896 220.149,99.311 220.576 L 98.248 221.352 99.024 220.289 C 99.777 219.256,100.413 218.889,100.387 219.500 M70.048 238.620 C 69.839 239.379,69.924 240.491,70.289 241.739 C 70.936 243.958,70.752 244.509,69.832 243.105 C 69.025 241.874,68.915 239.245,69.623 238.112 C 70.325 236.987,70.456 237.143,70.048 238.620 M141.445 327.734 C 141.640 327.770,141.755 327.935,141.700 328.100 C 141.645 328.265,141.810 328.400,142.067 328.400 C 142.323 328.400,142.414 328.519,142.269 328.664 C 141.943 328.990,140.398 327.641,140.406 327.038 C 140.410 326.794,140.562 326.836,140.751 327.134 C 140.937 327.428,141.249 327.698,141.445 327.734 M119.200 333.449 C 119.200 333.980,119.091 334.008,118.600 333.600 C 118.270 333.326,118.000 333.034,118.000 332.951 C 118.000 332.868,118.270 332.800,118.600 332.800 C 118.930 332.800,119.200 333.092,119.200 333.449 M149.412 365.921 C 149.143 366.190,148.000 365.192,148.000 364.689 C 148.000 364.462,148.361 364.603,148.802 365.002 C 149.244 365.402,149.518 365.815,149.412 365.921 M252.030 365.711 L 251.104 366.600 251.806 365.488 C 252.192 364.876,252.609 364.476,252.732 364.599 C 252.855 364.722,252.539 365.222,252.030 365.711 " stroke="none" fill="#64c4f4" fill-rule="evenodd"></path><path id="path2" d="M133.600 61.200 C 132.743 62.057,132.339 73.668,133.148 74.168 C 133.340 74.286,133.604 74.922,133.736 75.581 C 134.111 77.455,131.366 77.400,224.000 77.400 L 311.800 77.400 311.923 75.700 C 312.042 74.057,312.091 74.000,313.409 74.000 C 315.271 74.000,315.600 73.205,315.600 68.706 C 315.600 64.530,315.343 64.000,313.320 64.000 C 312.022 64.000,312.000 63.970,312.000 62.200 L 312.000 60.400 223.200 60.400 C 134.933 60.400,134.395 60.405,133.600 61.200 M126.481 81.679 C 125.750 82.410,125.806 97.341,126.542 97.952 C 126.941 98.283,151.505 98.375,219.442 98.301 L 311.800 98.200 311.923 96.500 C 312.045 94.818,312.062 94.800,313.576 94.800 C 315.444 94.800,315.587 94.427,315.595 89.533 C 315.602 85.076,315.484 84.800,313.580 84.800 C 312.061 84.800,312.045 84.783,311.923 83.100 L 311.800 81.400 219.381 81.299 C 147.830 81.221,126.853 81.307,126.481 81.679 M198.800 152.800 C 199.035 153.240,199.408 153.600,199.628 153.600 C 199.885 153.600,199.875 153.315,199.600 152.800 C 199.365 152.360,198.992 152.000,198.772 152.000 C 198.515 152.000,198.525 152.285,198.800 152.800 M336.400 176.289 C 336.400 176.516,336.670 176.926,337.000 177.200 C 337.361 177.500,337.600 178.375,337.600 179.400 C 337.600 180.425,337.361 181.300,337.000 181.600 C 336.670 181.874,336.400 182.284,336.400 182.511 C 336.400 182.738,336.760 182.598,337.200 182.200 C 337.804 181.653,338.000 180.968,338.000 179.400 C 338.000 177.832,337.804 177.147,337.200 176.600 C 336.760 176.202,336.400 176.062,336.400 176.289 M269.200 326.304 C 269.200 326.471,269.560 326.832,270.000 327.107 C 270.876 327.654,271.085 327.245,270.320 326.480 C 269.778 325.938,269.200 325.847,269.200 326.304 " stroke="none" fill="#fcbb04" fill-rule="evenodd"></path><path id="path3" d="M223.700 151.456 C 223.205 151.991,222.800 152.692,222.800 153.014 C 222.800 153.529,211.322 154.014,208.459 153.620 C 208.161 153.579,207.621 153.678,207.259 153.838 C 206.896 153.999,206.420 154.151,206.200 154.175 C 205.980 154.199,205.825 154.530,205.856 154.910 C 205.886 155.289,205.730 155.600,205.509 155.600 C 205.288 155.600,205.201 155.960,205.316 156.400 C 205.506 157.127,205.328 157.200,203.353 157.200 C 200.301 157.200,199.362 160.258,200.788 165.555 L 201.242 167.240 204.632 167.165 C 207.273 167.107,208.105 166.948,208.399 166.445 C 208.715 165.904,208.778 165.945,208.788 166.700 C 208.799 167.554,208.647 167.600,205.833 167.600 C 202.363 167.600,201.600 167.820,201.600 168.820 C 201.600 169.655,200.168 170.800,199.125 170.800 C 198.205 170.800,195.600 172.052,195.600 172.494 C 195.600 173.258,192.393 174.139,188.800 174.363 L 185.000 174.600 184.877 176.300 L 184.754 178.000 182.910 178.000 C 180.818 178.000,180.766 177.657,182.833 177.491 L 184.200 177.382 184.318 174.202 C 184.448 170.717,183.444 169.095,180.836 168.578 C 180.266 168.465,179.247 168.198,178.572 167.986 C 175.646 167.067,174.400 167.429,174.400 169.200 C 174.400 170.700,174.325 170.803,173.200 170.850 C 170.757 170.952,170.954 170.759,170.850 173.149 C 170.803 174.228,170.677 174.310,168.787 174.492 C 166.074 174.752,162.917 178.000,165.377 178.000 C 165.770 178.000,165.993 178.542,166.077 179.697 C 166.190 181.253,166.340 181.461,167.882 182.197 C 169.984 183.201,172.347 185.921,173.421 188.573 L 174.243 190.600 177.326 190.962 C 180.774 191.367,180.842 191.342,181.051 189.549 C 181.240 187.926,180.923 188.075,184.403 187.965 C 186.561 187.896,187.548 187.692,187.930 187.235 C 188.221 186.886,188.347 186.823,188.209 187.095 C 188.026 187.458,188.204 187.503,188.880 187.264 C 189.386 187.085,190.070 186.371,190.400 185.678 C 190.983 184.454,193.430 183.946,196.700 184.370 C 196.975 184.406,197.200 184.237,197.200 183.994 C 197.200 183.751,197.408 183.681,197.662 183.838 C 197.925 184.001,198.016 183.949,197.873 183.718 C 196.808 181.994,199.875 180.683,203.854 181.160 C 204.361 181.220,204.839 180.309,205.088 178.807 C 205.299 177.533,204.936 177.658,208.710 177.567 C 210.520 177.523,212.000 177.350,212.000 177.181 C 212.000 177.013,212.343 176.965,212.763 177.074 C 213.775 177.339,215.339 175.775,215.074 174.763 C 214.890 174.057,215.126 174.000,218.247 174.000 C 221.755 174.000,222.947 173.201,222.229 171.331 C 222.047 170.857,226.092 170.483,228.300 170.770 C 228.575 170.806,228.800 170.653,228.800 170.431 C 228.800 168.841,231.423 167.200,233.964 167.200 C 236.538 167.200,237.075 167.400,235.200 167.661 C 234.074 167.818,233.192 168.448,233.466 168.900 C 233.565 169.065,233.445 169.200,233.198 169.200 C 232.952 169.200,232.782 169.515,232.821 169.900 C 232.860 170.285,232.871 171.455,232.846 172.500 L 232.800 174.400 231.200 174.400 L 229.600 174.400 229.600 176.200 C 229.600 177.993,229.435 178.174,227.935 178.027 C 226.778 177.913,226.112 179.759,226.033 183.300 C 226.000 184.778,225.976 184.800,224.400 184.800 L 222.800 184.800 222.800 186.536 C 222.800 188.011,222.646 188.342,221.775 188.739 C 221.181 189.009,220.854 189.036,220.998 188.803 C 221.135 188.581,221.077 188.400,220.870 188.400 C 220.376 188.400,219.151 190.277,219.232 190.909 C 219.267 191.179,219.273 192.255,219.247 193.300 L 219.200 195.200 217.600 195.200 C 216.720 195.200,215.978 195.380,215.950 195.600 C 215.923 195.820,215.855 196.180,215.800 196.400 C 215.745 196.620,215.674 197.205,215.641 197.700 C 215.603 198.293,215.142 198.805,214.291 199.200 C 213.374 199.626,213.009 200.061,213.032 200.700 C 213.049 201.195,212.914 201.600,212.732 201.600 C 212.549 201.600,212.400 202.410,212.400 203.400 C 212.400 205.213,212.158 205.445,210.500 205.230 C 210.225 205.194,210.000 205.363,210.000 205.606 C 210.000 205.849,209.820 205.936,209.600 205.800 C 209.380 205.664,209.173 205.788,209.139 206.076 C 209.106 206.364,209.036 206.780,208.985 207.000 C 208.934 207.220,208.872 207.866,208.846 208.436 C 208.815 209.128,208.466 209.624,207.792 209.931 C 207.238 210.183,206.612 210.842,206.402 211.395 C 206.192 211.948,205.835 212.400,205.610 212.400 C 205.384 212.400,205.221 212.535,205.247 212.700 C 205.508 214.353,205.137 216.061,204.564 215.841 C 204.214 215.707,203.719 215.730,203.464 215.893 C 203.209 216.055,202.820 216.191,202.600 216.194 C 202.380 216.197,202.110 217.640,202.000 219.400 L 201.800 222.600 200.200 222.800 C 198.690 222.989,198.593 223.083,198.478 224.462 C 198.362 225.854,197.182 226.756,195.870 226.456 C 195.689 226.414,195.655 226.565,195.794 226.790 C 195.933 227.016,195.883 227.200,195.682 227.200 C 195.481 227.200,195.283 228.407,195.242 229.882 C 195.156 233.001,195.309 232.686,193.800 232.861 C 191.085 233.175,190.676 235.862,193.172 236.987 C 194.046 237.381,195.084 238.002,195.480 238.366 C 197.674 240.384,201.600 241.312,201.600 239.813 C 201.600 239.454,201.834 239.315,202.201 239.456 C 202.531 239.583,203.116 239.343,203.501 238.924 C 203.885 238.505,204.043 238.396,203.851 238.681 C 203.640 238.995,203.663 239.200,203.908 239.200 C 204.422 239.200,204.879 238.052,204.567 237.546 C 204.437 237.337,204.493 236.948,204.691 236.682 C 204.889 236.417,205.101 235.480,205.163 234.600 C 205.296 232.696,205.121 232.919,206.675 232.676 C 208.239 232.433,208.839 232.086,208.763 231.470 C 208.540 229.665,208.839 228.329,209.416 228.551 C 210.206 228.854,211.603 227.989,211.591 227.204 C 211.585 226.789,211.323 226.913,210.756 227.600 C 209.835 228.716,210.135 227.973,211.266 226.338 C 211.670 225.754,212.000 224.629,212.000 223.838 C 212.000 222.972,212.199 222.387,212.500 222.367 C 215.373 222.175,215.444 222.095,215.567 218.943 C 215.589 218.379,215.939 218.002,216.594 217.837 C 217.207 217.683,217.683 217.207,217.837 216.594 C 217.974 216.047,218.247 215.600,218.443 215.600 C 218.640 215.600,218.800 214.790,218.800 213.800 C 218.800 212.160,218.889 211.996,219.800 211.950 C 221.596 211.860,221.800 211.805,221.835 211.400 C 221.854 211.180,221.997 210.712,222.154 210.360 C 222.311 210.008,222.410 209.558,222.373 209.360 C 222.336 209.162,222.327 208.155,222.353 207.123 L 222.400 205.246 224.083 205.123 C 225.729 205.003,225.769 204.965,225.919 203.401 C 226.080 201.726,226.560 201.133,227.469 201.482 C 228.180 201.755,229.246 200.850,229.169 200.039 C 229.135 199.687,229.129 198.365,229.154 197.100 L 229.200 194.800 230.576 194.800 C 232.308 194.800,232.652 194.356,232.750 191.992 C 232.794 190.932,232.915 190.814,233.742 191.021 C 234.974 191.330,236.133 190.206,235.890 188.937 C 235.792 188.422,235.866 188.000,236.055 188.000 C 236.245 188.000,236.400 188.900,236.400 190.000 C 236.400 192.020,236.196 192.242,234.530 192.037 C 234.272 192.005,233.929 192.191,233.768 192.451 C 233.574 192.766,233.664 192.826,234.038 192.632 C 234.347 192.472,234.262 192.615,233.850 192.951 C 233.421 193.300,233.202 193.827,233.337 194.181 C 233.468 194.521,233.393 194.800,233.170 194.800 C 232.947 194.800,232.794 195.025,232.830 195.300 C 233.247 198.512,232.730 205.507,232.088 205.339 C 230.230 204.853,229.696 206.256,229.624 211.807 C 229.554 217.255,228.826 219.200,226.858 219.200 C 226.533 219.200,226.385 219.318,226.530 219.463 C 226.675 219.608,226.608 219.949,226.382 220.221 C 226.157 220.493,226.000 220.870,226.033 221.058 C 226.410 223.158,225.915 230.347,225.379 230.553 C 225.023 230.689,224.863 230.622,225.003 230.395 C 225.137 230.178,224.947 230.000,224.581 230.000 C 224.159 230.000,223.997 230.216,224.140 230.587 C 224.264 230.910,224.165 231.298,223.921 231.449 C 223.630 231.629,223.587 231.530,223.797 231.162 C 224.035 230.745,223.996 230.712,223.646 231.033 C 222.941 231.680,223.554 232.800,224.612 232.800 C 225.122 232.800,226.069 233.331,226.718 233.980 C 228.373 235.635,229.644 235.860,231.673 234.856 C 233.473 233.965,234.400 234.223,234.400 235.613 C 234.400 236.857,236.539 239.655,238.099 240.450 C 238.924 240.872,239.600 241.483,239.600 241.808 C 239.600 242.229,240.049 242.400,241.157 242.400 C 242.755 242.400,243.200 241.957,243.200 240.367 C 243.200 239.727,243.492 239.600,244.967 239.600 C 245.938 239.600,246.794 239.465,246.868 239.300 C 246.942 239.135,247.542 238.550,248.201 238.000 L 249.400 237.000 248.400 238.155 C 247.788 238.862,247.633 239.237,248.000 239.123 C 248.330 239.020,248.870 238.410,249.200 237.768 C 249.530 237.126,249.838 236.532,249.883 236.450 C 249.929 236.368,250.424 236.300,250.983 236.300 C 251.543 236.300,252.000 236.132,252.000 235.926 C 252.000 235.721,252.161 235.652,252.358 235.774 C 252.822 236.061,253.412 234.842,253.554 233.300 C 253.579 233.025,254.095 232.797,254.700 232.794 C 256.297 232.785,256.856 232.283,256.933 230.789 C 256.972 230.014,257.248 229.383,257.600 229.268 C 258.118 229.097,258.124 229.162,257.643 229.745 C 257.337 230.116,257.197 230.530,257.333 230.666 C 257.469 230.802,257.899 230.533,258.290 230.068 C 258.795 229.467,259.527 229.199,260.821 229.140 C 262.632 229.059,263.363 228.657,263.440 227.700 C 263.462 227.425,263.507 226.930,263.540 226.600 C 263.580 226.200,264.040 226.000,264.920 226.000 C 266.579 226.000,267.200 225.390,267.200 223.759 C 267.200 222.507,267.249 222.472,269.300 222.257 C 270.455 222.136,271.760 221.962,272.200 221.870 C 272.640 221.778,273.154 221.679,273.343 221.651 C 273.531 221.623,273.582 221.330,273.455 221.000 C 273.329 220.670,273.420 220.400,273.659 220.400 C 273.898 220.400,273.999 220.040,273.884 219.600 C 273.698 218.889,273.872 218.800,275.437 218.800 C 276.407 218.800,277.223 218.620,277.250 218.400 C 277.278 218.180,277.345 217.820,277.400 217.600 C 277.455 217.380,277.522 216.840,277.550 216.400 C 277.590 215.766,277.883 215.600,278.967 215.600 C 280.546 215.600,281.675 215.245,281.418 214.828 C 281.320 214.670,281.636 214.554,282.120 214.570 C 282.736 214.591,283.180 214.212,283.600 213.309 C 284.159 212.105,285.204 211.678,286.909 211.956 C 287.285 212.017,288.028 210.160,287.895 209.492 C 287.839 209.207,288.452 208.927,289.400 208.805 C 290.954 208.606,291.007 208.548,291.240 206.800 C 291.372 205.810,291.507 205.326,291.540 205.724 C 291.573 206.122,291.768 206.344,291.972 206.217 C 292.177 206.091,292.475 206.198,292.634 206.455 C 292.815 206.748,292.750 206.816,292.462 206.638 C 291.794 206.226,291.893 207.013,292.581 207.584 C 292.900 207.849,293.516 207.954,293.949 207.816 C 294.541 207.628,294.800 207.794,294.995 208.483 C 295.540 210.413,296.112 211.600,296.498 211.600 C 296.738 211.600,296.759 211.393,296.549 211.081 C 296.357 210.796,296.483 210.866,296.829 211.238 C 297.175 211.610,297.805 211.986,298.229 212.073 C 298.757 212.183,298.969 212.518,298.901 213.140 C 298.834 213.745,298.956 213.951,299.269 213.758 C 299.580 213.565,299.653 213.685,299.488 214.114 C 299.306 214.589,299.411 214.694,299.886 214.512 C 300.341 214.337,300.438 214.415,300.216 214.775 C 299.985 215.148,300.114 215.218,300.693 215.034 C 301.575 214.754,302.633 215.699,302.209 216.386 C 301.870 216.933,302.338 218.400,302.851 218.400 C 303.069 218.400,303.133 218.175,302.994 217.900 C 302.855 217.625,303.012 217.733,303.344 218.140 C 303.675 218.547,304.140 218.761,304.376 218.615 C 304.936 218.269,306.131 219.464,305.785 220.024 C 305.639 220.260,305.853 220.725,306.260 221.056 C 306.667 221.388,306.747 221.528,306.438 221.368 C 306.064 221.174,305.974 221.234,306.168 221.549 C 306.329 221.809,306.672 221.995,306.930 221.963 C 308.388 221.783,308.740 222.061,309.000 223.598 C 309.148 224.477,309.462 225.315,309.697 225.460 C 309.961 225.623,310.005 225.532,309.813 225.220 C 309.635 224.933,309.940 225.005,310.522 225.386 C 312.173 226.467,315.377 226.652,316.049 225.703 C 316.352 225.277,317.354 224.453,318.275 223.874 C 319.686 222.987,319.970 222.587,320.075 221.337 C 320.229 219.508,321.836 218.812,323.455 219.873 C 324.554 220.593,327.604 220.426,328.610 219.591 C 329.685 218.699,329.441 197.041,328.343 195.943 C 327.898 195.498,327.435 195.232,327.314 195.353 C 327.193 195.473,326.338 195.128,325.412 194.586 C 323.491 193.460,321.904 193.342,320.254 194.202 C 319.624 194.531,318.274 194.814,317.254 194.832 C 316.234 194.849,315.624 194.953,315.897 195.064 C 316.260 195.211,316.282 195.473,315.978 196.041 C 315.750 196.467,315.701 197.038,315.870 197.308 C 316.039 197.579,316.231 198.151,316.298 198.579 C 316.449 199.551,317.468 200.704,318.453 201.017 C 319.156 201.240,319.196 201.780,319.130 210.127 C 319.092 215.007,318.991 218.235,318.907 217.300 C 318.755 215.613,318.742 215.600,317.177 215.600 C 315.604 215.600,315.600 215.596,315.600 214.000 C 315.600 212.682,315.463 212.400,314.823 212.400 C 314.395 212.400,313.769 212.006,313.432 211.524 C 313.094 211.042,312.699 210.768,312.552 210.914 C 312.406 211.061,312.537 211.484,312.843 211.855 C 313.324 212.438,313.318 212.503,312.800 212.332 C 312.461 212.221,312.172 211.599,312.136 210.904 C 312.049 209.219,310.874 206.867,309.848 206.323 C 308.915 205.830,307.600 204.453,307.600 203.971 C 307.600 203.803,306.997 203.292,306.259 202.836 C 305.426 202.322,304.777 201.513,304.545 200.704 C 304.265 199.721,303.832 199.283,302.787 198.923 L 301.400 198.445 303.300 198.423 C 304.345 198.410,305.200 198.237,305.200 198.037 C 305.200 197.838,305.533 197.762,305.940 197.869 C 306.763 198.084,308.120 196.960,307.886 196.257 C 307.723 195.770,308.187 195.254,309.417 194.555 C 311.191 193.546,310.021 187.044,307.984 186.597 C 307.378 186.463,306.566 186.005,306.179 185.577 C 305.688 185.035,304.951 184.800,303.738 184.800 L 302.000 184.800 302.000 186.400 C 302.000 187.977,301.979 188.000,300.500 188.029 C 295.635 188.121,295.416 188.250,295.233 191.124 C 295.215 191.412,295.037 191.546,294.838 191.423 C 294.638 191.300,294.559 190.877,294.662 190.484 C 294.768 190.079,294.491 189.445,294.025 189.022 C 293.571 188.612,293.200 188.385,293.200 188.517 C 293.200 188.650,292.654 188.568,291.987 188.335 C 291.053 188.010,290.829 187.739,291.014 187.156 C 291.146 186.740,291.067 186.400,290.840 186.400 C 290.612 186.400,290.522 186.146,290.641 185.836 C 290.889 185.192,289.636 184.658,288.711 185.013 C 288.167 185.222,287.651 184.077,287.444 182.200 C 287.420 181.980,287.220 181.785,287.000 181.767 C 284.940 181.599,284.175 180.901,284.358 179.353 C 284.418 178.842,283.453 177.942,282.942 178.033 C 281.449 178.301,280.794 177.963,281.025 177.044 C 281.157 176.518,281.067 175.965,280.826 175.816 C 280.584 175.667,280.508 175.349,280.655 175.111 C 280.815 174.851,280.737 174.791,280.462 174.962 C 280.208 175.119,280.000 175.027,280.000 174.757 C 280.000 174.487,279.899 174.368,279.775 174.492 C 279.063 175.204,277.419 174.090,277.357 172.853 C 277.277 171.262,277.146 171.124,275.648 171.048 C 274.163 170.974,274.102 170.910,273.910 169.224 C 273.769 167.990,273.610 167.831,272.376 167.690 C 269.700 167.385,270.679 167.168,274.217 167.283 L 277.800 167.400 277.933 168.797 C 278.101 170.574,278.273 170.663,281.703 170.763 C 285.009 170.860,285.195 170.932,284.916 172.000 C 284.794 172.465,284.904 172.800,285.177 172.800 C 285.436 172.800,285.537 172.978,285.403 173.195 C 285.263 173.422,285.423 173.489,285.779 173.353 C 286.121 173.222,286.400 173.293,286.400 173.510 C 286.400 173.742,288.092 173.933,290.466 173.970 C 295.208 174.045,295.200 174.042,295.200 175.781 C 295.200 177.365,295.381 177.450,298.996 177.570 C 301.762 177.661,302.519 178.023,302.120 179.064 C 302.007 179.359,302.124 179.600,302.381 179.600 C 302.637 179.600,302.744 179.768,302.617 179.972 C 302.344 180.414,302.626 180.600,304.100 180.952 C 305.118 181.196,305.200 181.124,305.200 179.991 C 305.200 179.318,305.735 177.740,306.388 176.484 C 307.547 174.257,307.566 174.130,307.134 171.400 C 306.564 167.800,306.401 167.656,302.800 167.570 C 299.854 167.499,298.381 166.917,298.413 165.838 C 298.421 165.597,298.764 165.805,299.177 166.300 C 300.053 167.350,300.400 167.435,300.400 166.600 C 300.400 166.270,300.265 166.000,300.100 166.000 C 299.935 165.999,299.308 165.576,298.706 165.058 C 297.786 164.267,297.120 164.104,294.516 164.035 C 290.960 163.941,291.228 164.049,291.114 162.668 C 291.065 162.081,290.874 161.600,290.689 161.600 C 290.504 161.600,290.481 161.392,290.638 161.138 C 290.809 160.863,290.749 160.785,290.489 160.945 C 290.251 161.092,289.942 161.030,289.804 160.807 C 289.666 160.583,288.303 160.400,286.776 160.400 C 285.249 160.400,284.000 160.248,284.000 160.061 C 284.000 158.361,281.332 157.200,277.426 157.200 L 274.000 157.200 274.000 155.790 C 274.000 151.536,262.602 153.292,261.724 157.682 C 261.501 158.795,255.738 163.600,254.624 163.600 C 254.293 163.600,254.136 164.198,254.162 165.367 C 254.183 166.338,254.290 167.127,254.400 167.119 C 256.670 166.961,257.200 167.222,257.206 168.500 C 257.212 169.793,257.657 170.899,258.145 170.834 C 259.976 170.589,260.354 170.827,260.476 172.300 C 260.596 173.756,260.650 173.804,262.300 173.923 C 263.874 174.037,264.004 174.134,264.050 175.223 C 264.153 177.643,263.957 177.447,266.377 177.550 C 267.466 177.596,267.563 177.726,267.677 179.300 C 267.796 180.950,267.844 181.004,269.300 181.124 C 270.574 181.230,270.800 181.390,270.800 182.191 C 270.800 183.966,271.201 184.400,272.843 184.400 L 274.400 184.400 274.400 186.200 L 274.400 188.000 276.200 188.000 L 278.000 188.000 278.000 189.600 C 278.000 190.480,278.194 191.200,278.431 191.200 C 279.093 191.200,281.200 193.459,281.200 194.169 C 281.200 194.516,281.505 194.800,281.878 194.800 C 283.605 194.800,285.740 198.318,284.100 198.461 C 283.715 198.494,283.199 198.542,282.954 198.567 C 282.277 198.635,281.183 199.649,281.242 200.153 C 281.427 201.723,281.184 202.000,279.620 202.000 C 278.297 202.000,277.731 202.292,276.135 203.800 C 274.834 205.029,274.003 205.528,273.515 205.373 C 273.105 205.243,272.800 205.347,272.800 205.616 C 272.800 205.874,272.524 205.980,272.187 205.850 C 271.479 205.579,270.683 207.229,271.054 208.197 C 271.261 208.736,270.171 208.983,268.545 208.766 C 268.057 208.701,267.612 209.807,267.606 211.100 C 267.600 212.394,266.040 212.835,262.905 212.431 C 261.901 212.302,260.900 213.187,260.900 214.204 C 260.900 215.491,260.926 215.470,259.000 215.743 C 258.120 215.868,257.355 215.977,257.300 215.985 C 257.245 215.993,257.200 216.720,257.200 217.600 C 257.200 219.137,257.149 219.200,255.900 219.205 C 254.303 219.212,252.755 219.602,252.963 219.945 C 253.048 220.085,252.641 220.548,252.059 220.973 L 251.000 221.745 251.762 220.873 C 252.181 220.393,252.322 220.000,252.076 220.000 C 251.437 220.000,250.759 221.427,251.044 222.171 C 251.242 222.687,250.954 222.800,249.443 222.800 C 248.412 222.800,247.600 222.987,247.600 223.224 C 247.600 223.457,247.416 223.533,247.190 223.394 C 246.965 223.255,246.806 223.289,246.837 223.470 C 247.169 225.381,246.788 225.955,245.103 226.077 C 243.814 226.171,243.372 226.381,243.263 226.956 C 243.017 228.252,241.208 229.596,239.642 229.646 C 237.169 229.725,237.045 229.775,236.759 230.800 C 236.605 231.350,236.462 229.685,236.440 227.100 C 236.404 222.892,236.473 222.395,237.100 222.354 C 237.485 222.328,237.980 222.266,238.200 222.215 C 238.420 222.164,238.825 222.094,239.100 222.061 C 239.472 222.016,239.600 220.626,239.600 216.624 C 239.600 212.991,239.750 211.155,240.062 210.962 C 240.348 210.785,240.415 210.852,240.238 211.138 C 240.074 211.404,240.192 211.600,240.514 211.600 C 241.335 211.600,242.531 210.135,242.177 209.563 C 241.972 209.230,242.044 209.180,242.406 209.404 C 242.789 209.640,242.866 209.550,242.685 209.078 C 242.548 208.719,242.588 208.331,242.776 208.215 C 242.963 208.099,243.142 205.806,243.175 203.119 C 243.240 197.676,243.179 197.900,244.596 197.900 C 245.613 197.900,246.498 196.899,246.369 195.895 C 246.334 195.623,246.327 192.925,246.353 189.900 L 246.400 184.400 247.810 184.400 C 249.775 184.400,250.428 180.798,250.076 171.900 C 250.046 171.145,250.231 170.800,250.665 170.800 C 251.182 170.800,251.207 170.910,250.800 171.400 C 250.473 171.793,250.452 172.000,250.737 172.000 C 250.976 172.000,251.373 171.625,251.618 171.166 C 251.864 170.707,252.169 170.436,252.297 170.563 C 252.424 170.691,252.760 170.465,253.042 170.061 C 253.634 169.216,253.420 165.583,252.753 165.171 C 252.521 165.028,252.347 164.796,252.366 164.655 C 252.385 164.515,252.400 164.251,252.400 164.068 C 252.400 163.780,249.662 163.170,243.800 162.154 C 241.840 161.814,238.106 158.172,237.244 155.757 C 236.938 154.901,235.862 153.345,234.854 152.300 L 233.020 150.400 228.810 150.442 C 224.893 150.482,224.537 150.552,223.700 151.456 M282.625 159.300 L 283.800 160.600 282.500 159.425 C 281.785 158.779,281.200 158.194,281.200 158.125 C 281.200 157.816,281.530 158.088,282.625 159.300 M214.500 163.889 C 213.785 163.978,212.615 163.978,211.900 163.889 C 211.185 163.801,211.770 163.728,213.200 163.728 C 214.630 163.728,215.215 163.801,214.500 163.889 M281.200 191.787 C 281.200 192.145,280.965 192.285,280.600 192.145 C 280.270 192.018,280.000 191.754,280.000 191.557 C 280.000 191.361,280.270 191.200,280.600 191.200 C 280.930 191.200,281.200 191.464,281.200 191.787 M277.967 203.300 C 277.875 203.355,277.260 203.850,276.600 204.400 L 275.400 205.400 276.370 204.300 C 276.903 203.695,277.518 203.200,277.736 203.200 C 277.955 203.200,278.058 203.245,277.967 203.300 M208.398 210.500 C 208.089 210.775,207.593 211.270,207.296 211.600 C 206.833 212.114,206.816 212.076,207.173 211.335 C 207.532 210.592,208.069 210.156,208.780 210.032 C 208.879 210.014,208.707 210.225,208.398 210.500 M166.496 212.064 C 166.223 212.337,166.000 212.780,166.000 213.049 C 166.000 213.318,165.550 214.073,165.000 214.727 C 163.036 217.061,163.765 221.770,166.161 222.219 C 167.463 222.463,167.566 222.594,167.679 224.141 C 167.796 225.744,167.850 225.804,169.300 225.924 L 170.800 226.048 170.800 228.198 C 170.800 231.302,171.266 232.248,172.949 232.564 C 174.266 232.811,174.363 232.934,174.478 234.514 C 174.549 235.495,174.809 236.221,175.100 236.250 C 175.375 236.278,176.130 236.322,176.778 236.350 C 177.891 236.397,177.963 236.504,178.078 238.300 L 178.200 240.200 181.126 240.096 C 184.919 239.962,188.000 237.433,188.000 234.453 C 188.000 233.544,187.809 232.800,187.576 232.800 C 187.343 232.800,187.275 232.603,187.424 232.362 C 187.795 231.761,186.799 230.000,186.088 230.000 C 185.657 230.000,185.704 230.177,186.275 230.700 C 186.694 231.085,186.759 231.225,186.419 231.012 C 185.002 230.124,184.400 229.171,184.400 227.817 C 184.400 226.983,184.194 226.375,183.900 226.339 C 183.625 226.306,183.220 226.236,183.000 226.185 C 182.780 226.134,182.285 226.072,181.900 226.046 C 181.358 226.010,181.200 225.640,181.200 224.400 C 181.200 223.520,181.017 222.800,180.792 222.800 C 180.566 222.800,180.488 222.388,180.618 221.870 C 180.882 220.821,179.928 219.750,179.156 220.227 C 178.864 220.408,178.781 220.354,178.944 220.091 C 179.091 219.852,178.849 219.543,178.406 219.402 C 177.707 219.180,177.363 218.237,177.560 217.079 C 177.631 216.661,176.539 215.569,176.121 215.640 C 174.362 215.939,174.000 215.604,174.000 213.678 L 174.000 211.757 170.496 211.662 C 168.127 211.598,166.832 211.728,166.496 212.064 M217.002 216.798 C 216.603 217.239,216.118 217.600,215.924 217.600 C 215.730 217.600,215.983 217.174,216.486 216.654 C 217.580 215.520,218.042 215.649,217.002 216.798 M310.191 236.815 C 310.055 237.034,309.749 237.092,309.511 236.945 C 309.261 236.791,309.191 236.861,309.345 237.111 C 309.492 237.349,309.422 237.663,309.187 237.808 C 308.953 237.952,308.815 238.460,308.881 238.935 C 308.972 239.599,308.768 239.827,308.000 239.917 C 306.305 240.114,305.375 240.790,305.284 241.890 C 305.177 243.185,305.277 243.102,303.600 243.291 C 302.272 243.440,302.194 243.534,302.077 245.124 L 301.954 246.800 300.177 246.800 C 299.200 246.800,298.400 246.960,298.400 247.157 C 298.400 247.353,297.944 247.628,297.386 247.768 C 296.815 247.911,296.164 248.497,295.895 249.111 C 295.315 250.431,294.781 250.858,294.049 250.589 C 293.746 250.477,293.238 250.704,292.920 251.093 C 292.601 251.482,292.472 251.547,292.632 251.238 C 292.809 250.897,292.762 250.776,292.512 250.931 C 292.285 251.071,292.100 251.659,292.100 252.238 C 292.100 253.420,291.335 254.086,290.334 253.775 C 289.967 253.661,289.550 253.758,289.406 253.990 C 289.262 254.223,288.977 254.309,288.772 254.183 C 288.421 253.966,288.339 254.279,288.241 256.200 C 288.211 256.780,287.870 257.037,287.000 257.135 C 285.377 257.318,284.800 257.877,284.800 259.263 L 284.800 260.429 280.900 260.314 C 278.102 260.232,277.027 260.063,277.095 259.714 C 277.411 258.108,275.274 257.200,271.182 257.200 C 266.926 257.200,266.887 257.178,267.162 254.934 C 267.216 254.496,264.899 253.495,264.147 253.632 C 263.956 253.666,262.236 253.673,260.324 253.647 L 256.848 253.600 256.724 252.100 L 256.600 250.600 252.900 250.485 C 249.640 250.384,249.200 250.284,249.200 249.647 C 249.200 248.768,247.984 247.600,247.069 247.600 C 246.701 247.600,246.400 247.420,246.400 247.200 C 246.400 246.487,243.565 246.776,241.567 247.693 C 239.562 248.613,239.086 249.303,238.595 252.000 C 238.138 254.509,237.985 254.736,236.153 255.623 C 235.006 256.178,234.203 256.884,233.963 257.550 C 233.117 259.892,232.681 260.400,231.520 260.400 C 229.966 260.400,229.583 261.495,230.794 262.475 C 231.304 262.888,231.917 263.161,232.157 263.081 C 232.722 262.893,233.420 263.604,233.778 264.731 C 234.092 265.721,237.041 267.296,238.701 267.360 C 239.269 267.382,239.823 267.670,239.932 268.000 C 240.103 268.518,240.038 268.524,239.455 268.043 C 239.084 267.737,238.661 267.606,238.514 267.752 C 238.368 267.899,238.642 268.294,239.124 268.632 C 239.606 268.969,240.000 269.595,240.000 270.023 C 240.000 270.663,240.282 270.800,241.600 270.800 C 243.026 270.800,243.200 270.905,243.200 271.767 C 243.200 273.561,243.597 274.000,245.220 274.000 C 246.739 274.000,246.755 274.017,246.877 275.700 L 247.000 277.400 250.151 277.533 L 253.303 277.666 255.075 275.933 L 256.848 274.200 256.724 271.000 C 256.639 268.807,256.443 267.784,256.100 267.750 C 255.825 267.723,255.077 267.678,254.437 267.650 C 253.481 267.609,253.312 267.458,253.485 266.798 C 253.600 266.357,253.495 265.755,253.251 265.461 C 253.007 265.167,252.902 264.832,253.017 264.716 C 253.298 264.435,250.807 263.948,250.394 264.203 C 250.216 264.313,249.949 263.684,249.801 262.804 C 249.652 261.924,249.338 261.085,249.103 260.940 C 248.826 260.769,248.795 260.874,249.015 261.238 C 249.290 261.695,249.209 261.691,248.577 261.213 C 248.150 260.890,247.725 260.575,247.633 260.513 C 247.542 260.451,248.205 260.400,249.106 260.400 C 250.413 260.400,250.799 260.568,251.009 261.228 C 251.525 262.855,253.493 263.597,257.300 263.599 C 260.945 263.600,261.063 263.663,260.834 265.482 C 260.761 266.059,262.514 267.280,263.268 267.178 C 263.561 267.138,265.467 267.127,267.505 267.153 L 271.209 267.200 270.944 268.900 C 270.798 269.835,270.519 270.705,270.325 270.832 C 269.246 271.542,269.874 277.037,271.213 278.600 C 272.037 279.561,274.000 285.376,274.000 286.855 C 274.000 288.021,275.855 288.305,276.866 287.294 C 277.138 287.022,277.581 286.800,277.851 286.800 C 278.463 286.800,279.600 285.695,279.600 285.102 C 279.600 284.859,279.150 285.083,278.600 285.600 C 278.050 286.117,277.600 286.356,277.600 286.132 C 277.600 284.765,278.959 284.468,285.600 284.386 C 289.230 284.340,292.570 284.289,293.023 284.272 C 293.670 284.247,293.854 283.962,293.883 282.945 C 293.903 282.233,294.208 281.239,294.560 280.736 C 295.957 278.741,294.402 274.431,292.269 274.391 C 292.011 274.386,292.534 274.049,293.430 273.642 C 295.686 272.617,297.140 267.600,295.182 267.600 C 294.972 267.600,294.800 266.700,294.800 265.600 L 294.800 263.600 296.357 263.600 C 298.004 263.600,298.400 263.167,298.400 261.367 C 298.400 260.533,298.588 260.400,299.767 260.400 C 301.515 260.400,302.468 260.033,302.132 259.490 C 301.963 259.217,302.126 259.163,302.585 259.339 C 303.337 259.627,304.400 259.004,304.400 258.275 C 304.400 258.039,304.127 258.196,303.793 258.624 C 303.230 259.345,303.220 259.323,303.652 258.313 C 303.908 257.714,304.255 257.311,304.424 257.415 C 304.593 257.520,304.795 257.416,304.872 257.185 C 304.949 256.954,305.456 256.731,305.998 256.690 C 307.120 256.606,308.549 255.365,308.191 254.785 C 308.060 254.573,308.143 254.400,308.376 254.400 C 308.609 254.400,308.800 255.030,308.800 255.800 C 308.800 257.124,308.726 257.200,307.449 257.200 C 305.546 257.200,305.204 257.821,305.395 260.928 C 305.637 264.885,306.450 265.473,312.241 265.882 L 315.600 266.119 315.600 264.902 C 315.600 263.787,316.413 262.957,317.136 263.335 C 317.491 263.521,318.590 262.326,318.640 261.700 C 318.662 261.425,318.707 260.210,318.740 259.000 L 318.800 256.800 320.157 256.800 C 321.979 256.800,322.276 256.192,322.354 252.300 L 322.400 250.000 323.751 250.000 C 325.700 250.000,327.109 246.800,325.441 246.160 C 325.100 246.030,324.706 245.306,324.565 244.552 C 324.281 243.039,323.117 242.000,321.705 242.000 C 321.104 242.000,319.931 241.116,318.294 239.432 C 315.781 236.844,311.106 235.335,310.191 236.815 M203.200 243.468 C 201.442 244.125,201.130 246.365,202.439 248.946 C 202.900 249.855,203.602 251.230,203.997 252.000 L 204.716 253.400 210.111 253.511 C 216.197 253.636,215.824 253.835,216.246 250.248 C 216.633 246.952,215.811 243.734,214.518 243.486 C 213.067 243.209,203.932 243.194,203.200 243.468 M287.300 274.289 C 286.585 274.378,285.415 274.378,284.700 274.289 C 283.985 274.201,284.570 274.128,286.000 274.128 C 287.430 274.128,288.015 274.201,287.300 274.289 M296.676 283.522 C 296.058 283.596,295.454 283.915,295.334 284.229 C 295.197 284.585,294.543 284.800,293.600 284.800 C 291.765 284.800,291.600 285.133,291.600 288.833 L 291.600 291.600 290.249 291.600 C 288.432 291.600,288.129 292.118,288.026 295.398 C 287.923 298.682,288.125 298.296,286.400 298.492 L 285.000 298.651 284.885 302.097 L 284.770 305.543 286.485 307.161 L 288.200 308.780 291.500 308.790 L 294.800 308.800 294.800 306.800 C 294.800 305.659,294.982 304.800,295.224 304.800 C 295.457 304.800,295.556 304.652,295.443 304.470 C 295.331 304.289,295.630 304.154,296.108 304.170 C 297.186 304.207,298.205 302.253,298.345 299.882 C 298.399 298.968,298.629 298.106,298.856 297.966 C 299.083 297.825,299.267 297.551,299.266 297.355 C 299.265 297.160,299.609 296.678,300.032 296.284 C 300.454 295.891,300.800 295.734,300.800 295.936 C 300.800 296.137,300.395 296.585,299.900 296.930 C 299.229 297.398,299.161 297.563,299.632 297.579 C 300.381 297.604,301.413 295.868,301.024 295.238 C 300.875 294.997,300.943 294.800,301.176 294.800 C 301.423 294.800,301.600 293.885,301.600 292.613 C 301.600 290.886,301.720 290.471,302.169 290.643 C 302.864 290.910,304.400 290.140,304.400 289.524 C 304.400 289.271,304.081 289.365,303.669 289.738 C 302.569 290.733,302.301 290.534,303.314 289.474 C 303.801 288.965,304.335 288.616,304.500 288.698 C 304.665 288.780,304.800 288.667,304.800 288.448 C 304.800 288.228,304.125 287.992,303.300 287.924 C 302.034 287.819,301.695 287.582,301.126 286.400 C 299.926 283.909,298.910 283.251,296.676 283.522 M272.000 291.131 C 271.230 291.203,270.330 291.489,270.000 291.765 C 269.670 292.042,268.590 292.653,267.600 293.123 C 264.424 294.632,264.289 294.829,264.515 297.649 C 264.727 300.298,265.510 301.417,266.900 301.057 C 267.496 300.902,267.600 301.166,267.600 302.837 C 267.600 303.917,267.735 304.815,267.900 304.833 C 270.778 305.148,270.743 305.124,270.864 306.915 C 270.960 308.346,271.018 308.400,272.462 308.400 C 279.110 308.400,283.330 304.019,280.531 300.023 C 280.113 299.427,280.061 299.191,280.393 299.395 C 280.726 299.601,280.828 299.568,280.666 299.307 C 280.525 299.078,279.777 298.772,279.004 298.627 C 277.717 298.386,277.600 298.247,277.600 296.969 C 277.600 296.009,277.382 295.493,276.900 295.311 C 275.924 294.942,274.001 292.971,273.994 292.331 C 273.983 291.346,273.407 290.999,272.000 291.131 " stroke="none" fill="#d3d3d4" fill-rule="evenodd"></path><path id="path4" d="M150.000 33.200 C 150.000 33.420,150.270 33.600,150.600 33.600 C 150.930 33.600,151.200 33.420,151.200 33.200 C 151.200 32.980,150.930 32.800,150.600 32.800 C 150.270 32.800,150.000 32.980,150.000 33.200 M192.100 33.100 C 211.625 33.157,243.575 33.157,263.100 33.100 C 282.625 33.043,266.650 32.996,227.600 32.996 C 188.550 32.996,172.575 33.043,192.100 33.100 M308.000 33.200 C 308.000 33.420,308.360 33.600,308.800 33.600 C 309.240 33.600,309.600 33.420,309.600 33.200 C 309.600 32.980,309.240 32.800,308.800 32.800 C 308.360 32.800,308.000 32.980,308.000 33.200 M148.400 33.557 C 148.400 33.827,148.240 33.949,148.045 33.828 C 147.384 33.420,146.699 34.693,147.156 35.479 C 147.407 35.911,147.581 35.990,147.588 35.676 C 147.595 35.384,147.804 35.279,148.062 35.438 C 148.354 35.619,148.415 35.548,148.227 35.244 C 148.064 34.981,148.152 34.498,148.423 34.173 C 148.693 33.847,148.798 33.465,148.657 33.324 C 148.516 33.182,148.400 33.287,148.400 33.557 M313.081 35.387 C 313.477 35.931,313.966 36.381,314.170 36.387 C 314.373 36.394,314.117 35.950,313.600 35.400 C 312.401 34.123,312.157 34.118,313.081 35.387 M323.300 37.829 C 323.905 38.157,324.400 38.724,324.400 39.088 C 324.400 39.635,324.258 39.598,323.584 38.875 C 322.525 37.738,322.138 37.752,322.900 38.900 C 323.661 40.047,325.183 40.223,324.898 39.131 C 324.691 38.340,323.316 37.189,322.611 37.216 C 322.385 37.225,322.695 37.501,323.300 37.829 M312.702 62.266 C 312.979 62.377,313.086 62.661,312.941 62.896 C 312.792 63.137,312.863 63.208,313.104 63.059 C 313.339 62.914,313.603 63.008,313.689 63.268 C 313.780 63.539,314.064 63.608,314.353 63.429 C 314.822 63.139,313.191 61.940,312.454 62.032 C 312.314 62.049,312.426 62.154,312.702 62.266 M316.152 65.754 C 316.202 66.097,316.368 66.502,316.521 66.654 C 316.952 67.085,318.844 67.194,318.584 66.773 C 318.457 66.568,318.153 66.400,317.908 66.400 C 317.663 66.400,317.147 66.114,316.762 65.765 C 316.134 65.197,316.070 65.196,316.152 65.754 M344.925 68.326 C 344.620 68.518,344.645 68.745,345.008 69.082 C 345.416 69.461,345.575 69.442,345.747 68.995 C 346.006 68.319,345.541 67.941,344.925 68.326 M345.705 70.985 C 345.903 72.469,346.354 72.658,346.314 71.241 C 346.294 70.558,346.119 70.000,345.925 70.000 C 345.731 70.000,345.632 70.443,345.705 70.985 M319.612 70.924 C 319.605 71.353,319.780 71.536,320.043 71.374 C 320.338 71.191,320.399 71.372,320.227 71.916 C 320.084 72.365,320.153 72.847,320.379 72.987 C 320.635 73.145,320.689 72.969,320.521 72.521 C 320.284 71.889,320.333 71.867,320.921 72.345 C 321.289 72.645,321.503 73.033,321.395 73.208 C 321.287 73.383,321.600 73.421,322.089 73.293 C 322.643 73.148,322.775 72.992,322.439 72.880 C 322.142 72.781,321.387 72.137,320.761 71.450 C 319.851 70.450,319.621 70.345,319.612 70.924 M319.881 86.266 C 320.066 86.749,319.991 86.842,319.606 86.604 C 319.251 86.384,319.172 86.431,319.366 86.745 C 319.525 87.002,319.823 87.109,320.028 86.983 C 320.519 86.679,320.508 85.600,320.013 85.600 C 319.799 85.600,319.740 85.900,319.881 86.266 M345.192 90.210 C 344.914 90.545,344.802 90.935,344.943 91.076 C 345.084 91.218,345.200 91.113,345.200 90.843 C 345.200 90.573,345.408 90.481,345.662 90.638 C 345.935 90.807,346.016 90.749,345.859 90.496 C 345.714 90.261,345.821 89.977,346.098 89.866 C 346.411 89.740,346.430 89.651,346.149 89.632 C 345.901 89.614,345.470 89.874,345.192 90.210 M312.904 95.821 C 312.631 96.116,312.541 96.438,312.704 96.537 C 312.867 96.635,313.223 96.474,313.496 96.179 C 313.769 95.884,313.859 95.562,313.696 95.463 C 313.533 95.365,313.177 95.526,312.904 95.821 M325.394 119.670 C 325.240 120.181,324.729 120.927,324.257 121.327 L 323.400 122.054 324.247 121.641 C 324.713 121.414,325.223 121.357,325.381 121.514 C 325.538 121.671,325.616 121.620,325.554 121.400 C 325.492 121.180,325.584 120.581,325.757 120.070 C 325.931 119.558,325.983 119.050,325.873 118.940 C 325.763 118.830,325.547 119.158,325.394 119.670 M134.576 132.187 C 134.149 132.510,133.980 132.775,134.200 132.775 C 134.420 132.775,134.949 132.510,135.376 132.187 C 135.804 131.864,135.973 131.600,135.753 131.600 C 135.533 131.600,135.004 131.864,134.576 132.187 M127.927 148.837 C 127.295 149.503,127.299 149.543,127.999 149.490 C 128.409 149.459,128.666 149.307,128.570 149.151 C 128.474 148.996,128.612 148.796,128.878 148.707 C 129.147 148.618,129.192 148.453,128.980 148.337 C 128.771 148.221,128.297 148.446,127.927 148.837 M224.000 150.757 C 224.000 151.027,223.792 151.119,223.538 150.962 C 223.265 150.793,223.184 150.851,223.341 151.104 C 223.486 151.339,223.379 151.623,223.102 151.734 C 222.789 151.860,222.770 151.949,223.051 151.968 C 223.634 152.009,224.593 150.860,224.257 150.524 C 224.116 150.382,224.000 150.487,224.000 150.757 M198.400 151.365 C 198.400 151.672,200.263 153.600,200.560 153.600 C 201.063 153.600,199.984 152.020,199.191 151.595 C 198.756 151.362,198.400 151.259,198.400 151.365 M123.400 158.000 C 122.349 159.097,122.372 159.607,123.440 158.894 C 123.879 158.601,124.953 156.800,124.689 156.800 C 124.612 156.800,124.032 157.340,123.400 158.000 M96.368 158.300 C 95.918 158.896,95.922 158.925,96.399 158.500 C 97.303 157.694,97.791 157.926,97.009 158.791 C 96.615 159.225,96.139 159.486,95.951 159.370 C 95.763 159.254,95.707 159.413,95.826 159.724 C 95.995 160.163,96.305 160.060,97.213 159.263 C 98.050 158.529,98.243 158.148,97.892 157.924 C 97.174 157.469,96.957 157.522,96.368 158.300 M281.200 158.125 C 281.200 158.194,281.785 158.779,282.500 159.425 L 283.800 160.600 282.625 159.300 C 281.530 158.088,281.200 157.816,281.200 158.125 M174.800 164.264 C 174.800 164.482,175.295 165.097,175.900 165.630 L 177.000 166.600 176.000 165.400 C 175.450 164.740,174.955 164.125,174.900 164.033 C 174.845 163.942,174.800 164.045,174.800 164.264 M299.300 165.503 C 299.905 165.878,300.400 166.414,300.400 166.693 C 300.400 167.436,300.025 167.316,299.177 166.300 C 298.764 165.805,298.421 165.597,298.413 165.838 C 298.394 166.464,299.681 167.496,300.462 167.480 C 300.889 167.471,301.046 167.242,300.904 166.833 C 300.648 166.097,299.184 164.817,298.600 164.820 C 298.380 164.821,298.695 165.128,299.300 165.503 M251.618 171.166 C 251.373 171.625,250.976 172.000,250.737 172.000 C 250.452 172.000,250.473 171.793,250.800 171.400 C 251.207 170.910,251.182 170.800,250.665 170.800 C 250.214 170.800,250.056 171.133,250.116 171.960 C 250.186 172.924,250.316 173.058,250.891 172.751 C 251.653 172.343,252.580 170.847,252.265 170.531 C 252.155 170.421,251.864 170.707,251.618 171.166 M285.390 173.448 C 285.747 173.804,286.159 173.974,286.307 173.826 C 286.456 173.678,286.312 173.389,285.988 173.184 C 285.043 172.587,284.687 172.744,285.390 173.448 M118.073 174.087 C 117.813 174.347,117.600 174.798,117.600 175.089 C 117.600 175.379,117.156 175.820,116.613 176.067 C 115.680 176.492,115.577 177.200,116.447 177.200 C 116.667 177.200,116.717 176.989,116.558 176.732 C 116.368 176.425,116.481 176.345,116.886 176.501 C 117.670 176.802,118.408 176.085,118.110 175.311 C 117.986 174.985,118.129 174.567,118.430 174.381 C 118.731 174.196,118.880 173.947,118.762 173.828 C 118.643 173.710,118.334 173.826,118.073 174.087 M337.130 176.526 C 338.322 177.794,338.363 181.148,337.200 182.200 C 336.760 182.598,336.400 183.107,336.400 183.332 C 336.400 183.556,336.850 183.317,337.400 182.800 C 339.210 181.099,338.598 175.600,336.599 175.600 C 336.413 175.600,336.652 176.017,337.130 176.526 M164.474 177.500 C 164.417 177.885,162.022 178.000,154.043 178.000 C 142.808 178.000,143.200 177.920,143.200 180.209 C 143.200 181.010,142.974 181.170,141.700 181.276 C 140.244 181.396,140.196 181.450,140.077 183.100 C 139.958 184.749,139.913 184.800,138.567 184.800 C 136.528 184.800,136.400 185.521,136.400 197.052 C 136.400 208.354,136.484 208.800,138.614 208.800 C 139.964 208.800,140.000 208.841,140.000 210.400 L 140.000 212.000 141.600 212.000 C 143.143 212.000,143.200 212.047,143.200 213.320 C 143.200 215.281,143.772 215.600,147.280 215.600 C 150.317 215.600,150.400 215.626,150.400 216.571 C 150.400 218.946,159.428 219.915,162.542 217.875 C 163.585 217.191,164.103 215.669,163.100 216.235 C 162.825 216.391,163.005 216.124,163.500 215.643 C 163.995 215.162,164.400 214.488,164.400 214.145 C 164.400 211.149,168.941 208.853,170.970 210.822 C 171.191 211.035,171.587 210.982,171.947 210.690 C 172.334 210.377,172.455 210.364,172.281 210.655 C 172.002 211.121,173.366 211.701,173.777 211.290 C 173.900 211.167,174.000 209.767,174.000 208.178 L 174.000 205.289 175.418 205.023 C 177.372 204.656,177.600 203.816,177.600 196.974 L 177.600 191.200 175.881 191.200 C 173.604 191.200,171.235 189.046,170.512 186.317 C 170.072 184.659,169.845 184.407,168.241 183.794 C 165.649 182.804,164.876 181.803,164.698 179.200 C 164.616 177.990,164.515 177.225,164.474 177.500 M85.829 185.829 C 84.751 186.906,85.542 187.794,86.651 186.752 C 87.771 185.699,87.758 185.746,87.012 185.460 C 86.688 185.336,86.156 185.502,85.829 185.829 M278.813 191.500 C 278.796 192.147,280.253 193.604,280.900 193.587 C 281.195 193.580,281.099 193.347,280.668 193.020 C 280.265 192.714,279.686 192.135,279.380 191.732 C 279.053 191.301,278.820 191.205,278.813 191.500 M280.000 191.557 C 280.000 191.754,280.270 192.018,280.600 192.145 C 280.965 192.285,281.200 192.145,281.200 191.787 C 281.200 191.464,280.930 191.200,280.600 191.200 C 280.270 191.200,280.000 191.361,280.000 191.557 M110.312 193.706 C 110.453 194.248,110.322 194.355,109.748 194.168 C 109.131 193.967,109.105 194.000,109.600 194.355 C 110.046 194.675,110.313 194.635,110.640 194.199 C 110.881 193.876,111.225 193.745,111.404 193.906 C 111.582 194.068,111.608 193.990,111.462 193.734 C 111.315 193.478,111.421 193.186,111.698 193.085 C 111.974 192.984,111.734 192.923,111.164 192.951 C 110.381 192.988,110.173 193.173,110.312 193.706 M282.406 195.100 C 282.418 195.663,282.999 196.280,284.000 196.792 C 284.958 197.282,284.951 197.252,283.825 196.052 C 282.594 194.740,282.396 194.607,282.406 195.100 M214.204 199.206 C 214.440 199.589,214.350 199.666,213.878 199.485 C 213.519 199.348,213.142 199.370,213.041 199.534 C 212.939 199.699,213.199 199.860,213.620 199.892 C 214.538 199.961,215.000 199.371,214.345 198.966 C 214.031 198.772,213.984 198.851,214.204 199.206 M108.056 200.636 C 107.695 201.430,107.694 201.635,108.056 201.515 C 108.315 201.428,108.587 200.962,108.661 200.479 C 108.838 199.315,108.634 199.369,108.056 200.636 M275.804 203.596 C 275.174 204.254,274.735 204.842,274.829 204.903 C 274.923 204.964,275.570 204.426,276.266 203.707 C 276.962 202.988,277.401 202.400,277.241 202.400 C 277.081 202.400,276.434 202.938,275.804 203.596 M276.370 204.300 L 275.400 205.400 276.600 204.400 C 277.260 203.850,277.875 203.355,277.967 203.300 C 278.058 203.245,277.955 203.200,277.736 203.200 C 277.518 203.200,276.903 203.695,276.370 204.300 M208.095 210.266 C 207.818 210.378,207.403 210.859,207.173 211.335 C 206.816 212.076,206.833 212.114,207.296 211.600 C 207.593 211.270,208.089 210.775,208.398 210.500 C 208.987 209.976,208.929 209.931,208.095 210.266 M312.160 211.067 C 312.182 211.654,312.470 212.223,312.800 212.332 C 313.318 212.503,313.324 212.438,312.843 211.855 C 312.537 211.484,312.397 211.070,312.533 210.934 C 312.669 210.798,313.139 211.117,313.577 211.643 C 314.015 212.170,314.379 212.375,314.387 212.100 C 314.402 211.541,312.988 210.000,312.460 210.000 C 312.272 210.000,312.137 210.480,312.160 211.067 M75.554 213.076 C 75.528 213.254,75.483 213.631,75.454 213.913 C 75.424 214.196,75.135 214.591,74.812 214.792 C 74.488 214.992,74.344 215.278,74.493 215.426 C 74.822 215.755,76.139 214.495,76.249 213.745 C 76.293 213.447,76.165 213.102,75.964 212.978 C 75.764 212.854,75.579 212.898,75.554 213.076 M299.063 213.904 C 298.965 214.067,299.126 214.423,299.421 214.696 C 299.716 214.969,300.038 215.059,300.137 214.896 C 300.235 214.733,300.074 214.377,299.779 214.104 C 299.484 213.831,299.162 213.741,299.063 213.904 M216.486 216.654 C 215.983 217.174,215.730 217.600,215.924 217.600 C 216.348 217.600,217.797 216.055,217.564 215.851 C 217.474 215.772,216.989 216.133,216.486 216.654 M228.122 217.766 C 227.505 218.297,227.103 218.835,227.229 218.962 C 227.355 219.088,227.974 218.654,228.604 217.996 C 229.981 216.559,229.688 216.419,228.122 217.766 M99.024 220.289 L 98.248 221.352 99.311 220.576 C 100.344 219.823,100.711 219.187,100.100 219.213 C 99.935 219.219,99.451 219.704,99.024 220.289 M252.172 219.955 C 252.466 220.430,251.415 221.273,250.999 220.897 C 250.819 220.733,250.801 220.825,250.960 221.101 C 251.181 221.484,251.466 221.438,252.183 220.901 C 253.089 220.221,253.170 219.600,252.353 219.600 C 252.133 219.600,252.051 219.760,252.172 219.955 M71.296 223.595 C 70.666 224.603,70.671 224.825,71.316 224.577 C 71.599 224.468,71.858 224.024,71.891 223.590 C 71.965 222.607,71.913 222.608,71.296 223.595 M210.906 226.820 C 210.087 228.114,210.047 229.065,210.834 228.579 C 211.043 228.450,211.093 228.150,210.945 227.912 C 210.798 227.674,210.994 227.247,211.381 226.965 C 211.767 226.682,212.010 226.231,211.921 225.963 C 211.831 225.694,211.375 226.080,210.906 226.820 M257.021 229.700 C 256.769 230.519,256.909 231.600,257.267 231.600 C 257.789 231.600,259.201 230.055,259.187 229.500 C 259.179 229.225,258.815 229.430,258.377 229.957 C 257.939 230.483,257.469 230.802,257.333 230.666 C 257.197 230.530,257.314 230.145,257.592 229.810 C 257.953 229.375,257.966 229.200,257.636 229.200 C 257.383 229.200,257.106 229.425,257.021 229.700 M185.200 229.925 C 185.200 230.136,185.620 230.583,186.133 230.920 C 186.893 231.417,187.067 231.429,187.067 230.983 C 187.067 230.682,186.931 230.519,186.766 230.621 C 186.600 230.724,186.180 230.523,185.832 230.175 C 185.485 229.827,185.200 229.715,185.200 229.925 M96.832 233.700 C 96.814 234.085,96.945 234.400,97.123 234.400 C 97.300 234.400,97.657 234.895,97.916 235.500 C 98.350 236.515,98.369 236.522,98.164 235.600 C 98.042 235.050,97.925 234.383,97.904 234.118 C 97.884 233.852,97.732 233.718,97.567 233.820 C 97.403 233.922,97.177 233.779,97.066 233.502 C 96.944 233.199,96.851 233.278,96.832 233.700 M69.623 238.112 C 68.915 239.245,69.025 241.874,69.832 243.105 C 70.752 244.509,70.936 243.958,70.289 241.739 C 69.924 240.491,69.839 239.379,70.048 238.620 C 70.456 237.143,70.325 236.987,69.623 238.112 M247.854 238.233 C 247.223 238.787,246.816 239.349,246.948 239.482 C 247.081 239.614,247.566 239.243,248.026 238.657 C 248.487 238.072,249.057 237.712,249.294 237.858 C 249.549 238.015,249.607 237.936,249.438 237.662 C 249.083 237.087,249.210 237.041,247.854 238.233 M68.446 242.118 C 68.401 243.599,70.065 246.068,70.688 245.445 C 70.820 245.313,70.511 244.843,70.001 244.401 C 69.491 243.958,68.943 242.922,68.783 242.098 L 68.492 240.600 68.446 242.118 M71.400 252.800 C 72.204 253.688,72.756 253.911,72.052 253.063 C 71.807 252.768,71.725 252.408,71.870 252.263 C 72.015 252.118,71.805 252.000,71.405 252.000 C 70.701 252.000,70.701 252.028,71.400 252.800 M74.702 255.466 C 74.979 255.577,75.086 255.861,74.941 256.096 C 74.784 256.349,74.865 256.407,75.138 256.238 C 75.392 256.081,75.600 256.173,75.600 256.443 C 75.600 256.713,75.716 256.818,75.857 256.676 C 76.193 256.340,75.234 255.191,74.651 255.232 C 74.370 255.251,74.389 255.340,74.702 255.466 M109.206 257.611 C 109.573 258.297,110.400 258.395,110.400 257.753 C 110.400 257.643,110.189 257.683,109.932 257.842 C 109.617 258.036,109.548 257.913,109.719 257.466 C 109.888 257.027,109.770 256.800,109.373 256.800 C 108.893 256.800,108.859 256.963,109.206 257.611 M275.606 257.420 C 275.599 257.929,276.424 258.800,276.913 258.800 C 277.108 258.800,277.202 258.607,277.123 258.370 C 277.045 258.134,276.825 257.969,276.635 258.004 C 276.445 258.039,276.137 257.828,275.951 257.534 C 275.765 257.240,275.609 257.189,275.606 257.420 M303.834 257.894 C 303.527 258.861,303.546 259.218,303.897 259.100 C 304.061 259.045,304.139 258.757,304.071 258.460 C 304.002 258.161,304.137 258.038,304.373 258.183 C 304.608 258.329,304.800 258.267,304.800 258.047 C 304.800 257.301,304.059 257.184,303.834 257.894 M109.942 258.728 C 109.407 258.949,109.381 259.090,109.801 259.478 C 110.209 259.854,110.361 259.791,110.522 259.178 C 110.634 258.750,110.697 258.413,110.663 258.428 C 110.628 258.444,110.304 258.579,109.942 258.728 M111.421 259.586 C 110.681 259.852,110.686 259.877,111.521 260.095 C 112.005 260.222,112.400 260.612,112.400 260.963 C 112.400 261.313,112.588 261.600,112.818 261.600 C 113.047 261.600,113.182 261.858,113.118 262.174 C 113.053 262.489,113.135 262.759,113.300 262.774 C 114.159 262.849,114.400 262.762,114.400 262.376 C 114.400 262.143,114.220 262.064,114.000 262.200 C 113.780 262.336,113.600 262.179,113.600 261.852 C 113.600 261.525,113.359 261.016,113.064 260.721 C 112.770 260.427,112.455 259.988,112.364 259.747 C 112.270 259.494,111.869 259.426,111.421 259.586 M230.562 261.473 C 231.110 262.063,231.449 262.721,231.317 262.935 C 231.185 263.149,231.283 263.196,231.534 263.041 C 232.018 262.741,230.577 260.400,229.909 260.400 C 229.721 260.400,230.015 260.883,230.562 261.473 M237.600 267.583 C 237.600 268.101,238.613 269.092,239.400 269.345 C 240.090 269.566,240.069 269.491,239.243 268.791 C 238.717 268.345,238.398 267.869,238.534 267.733 C 238.670 267.597,239.084 267.737,239.455 268.043 C 240.038 268.524,240.103 268.518,239.932 268.000 C 239.742 267.424,237.600 267.041,237.600 267.583 M115.767 284.600 C 115.767 288.780,115.826 290.436,115.898 288.279 C 115.971 286.123,115.970 282.703,115.898 280.679 C 115.825 278.656,115.766 280.420,115.767 284.600 M278.237 285.159 C 277.218 286.285,277.502 286.631,278.600 285.600 C 279.150 285.083,279.600 284.859,279.600 285.102 C 279.600 285.709,278.457 286.800,277.820 286.800 C 277.533 286.800,277.052 287.096,276.752 287.457 C 276.319 287.980,276.540 287.945,277.825 287.290 C 279.684 286.341,280.790 284.600,279.591 284.509 C 279.197 284.480,278.587 284.772,278.237 285.159 M303.342 289.447 C 302.647 290.174,302.594 290.389,303.062 290.569 C 303.381 290.691,303.544 290.633,303.425 290.441 C 303.155 290.003,304.177 289.111,304.537 289.470 C 304.682 289.615,304.800 289.534,304.800 289.290 C 304.800 288.476,304.208 288.540,303.342 289.447 M299.660 296.611 C 298.963 297.273,298.850 297.583,299.222 297.813 C 299.536 298.007,299.623 297.961,299.455 297.689 C 299.308 297.451,299.390 297.130,299.638 296.976 C 299.886 296.823,300.224 296.916,300.389 297.182 C 300.614 297.547,300.743 297.526,300.907 297.097 C 301.333 295.989,300.611 295.707,299.660 296.611 M296.620 303.103 L 295.953 304.200 296.742 303.298 C 297.289 302.673,297.594 302.550,297.734 302.898 C 297.879 303.258,297.946 303.265,297.968 302.924 C 298.033 301.943,297.264 302.045,296.620 303.103 M268.795 326.791 C 269.253 327.646,270.800 328.646,270.800 328.086 C 270.800 327.733,268.958 326.000,268.583 326.000 C 268.467 326.000,268.562 326.356,268.795 326.791 M140.575 326.840 C 140.118 327.580,141.887 329.073,142.496 328.461 C 142.902 328.051,142.861 328.005,142.284 328.225 C 141.791 328.413,141.604 328.326,141.684 327.949 C 141.748 327.647,141.553 327.452,141.251 327.516 C 140.902 327.590,140.788 327.409,140.938 327.016 C 141.211 326.305,140.976 326.191,140.575 326.840 M117.106 332.628 C 116.690 333.043,117.497 334.319,118.509 334.845 L 119.400 335.309 118.551 334.354 C 118.084 333.829,117.630 333.164,117.543 332.875 C 117.455 332.586,117.258 332.475,117.106 332.628 M118.000 332.951 C 118.000 333.034,118.270 333.326,118.600 333.600 C 119.091 334.008,119.200 333.980,119.200 333.449 C 119.200 333.092,118.930 332.800,118.600 332.800 C 118.270 332.800,118.000 332.868,118.000 332.951 M252.000 343.762 C 252.000 344.139,252.165 344.345,252.366 344.221 C 252.567 344.097,252.812 344.221,252.911 344.498 C 253.010 344.774,253.206 344.894,253.348 344.764 C 253.489 344.635,253.244 344.202,252.802 343.802 C 252.060 343.131,252.000 343.128,252.000 343.762 M136.800 360.824 C 136.800 361.057,136.999 361.124,137.243 360.974 C 137.538 360.791,137.599 360.972,137.427 361.516 C 137.284 361.965,137.353 362.447,137.579 362.587 C 137.829 362.742,137.891 362.583,137.737 362.181 C 137.515 361.602,137.587 361.585,138.326 362.047 C 138.928 362.422,139.030 362.660,138.684 362.880 C 138.418 363.049,138.380 363.188,138.600 363.188 C 139.629 363.188,140.101 362.486,139.252 362.217 C 138.783 362.068,138.213 361.598,137.986 361.173 C 137.542 360.344,136.800 360.126,136.800 360.824 M147.200 364.224 C 147.200 364.598,147.387 364.732,147.668 364.558 C 147.975 364.368,148.055 364.481,147.899 364.886 C 147.594 365.681,148.319 366.406,149.114 366.101 C 149.489 365.957,149.629 366.030,149.470 366.287 C 149.109 366.871,150.796 367.252,151.570 366.762 C 152.052 366.456,151.977 366.423,151.250 366.624 C 150.605 366.801,150.388 366.743,150.574 366.443 C 150.726 366.196,150.587 366.000,150.259 366.000 C 149.936 366.000,149.217 365.460,148.661 364.800 C 147.524 363.448,147.200 363.320,147.200 364.224 M252.522 363.855 C 252.662 363.995,252.418 364.612,251.981 365.227 C 251.475 365.938,251.337 366.438,251.603 366.602 C 251.832 366.743,251.970 366.629,251.910 366.348 C 251.849 366.067,252.050 365.828,252.355 365.818 C 253.007 365.797,253.354 363.600,252.706 363.600 C 252.464 363.600,252.381 363.715,252.522 363.855 " stroke="none" fill="#0454a4" fill-rule="evenodd"></path></g></svg>